# MagicaVoxel @ Ephtracy

# group
o VertStreet

# material
mtllib cars-9-VertStreet.mtl
usemtl palette

# normals
vn -1 0 0
vn 1 0 0
vn 0 0 1
vn 0 0 -1
vn 0 -1 0
vn 0 1 0

# texcoords
vt 0.0332031 0.5
vt 0.0683594 0.5
vt 0.0722656 0.5

# verts
v -1.6 -0.05 1.6
v -1.6 -0.05 -1.6
v -1.6 0.05 1.6
v -1.6 0.05 -1.6
v 1.6 -0.05 1.6
v 1.6 -0.05 -1.6
v 1.6 0.05 1.6
v 1.6 0.05 -1.6
v -1.6 -0.05 1.6
v -1.6 0.05 1.6
v -1.1 -0.05 1.6
v -1.1 0.05 1.6
v -0.1 -0.05 1.6
v -0.1 0.05 1.6
v 0 -0.05 1.6
v 0 0.05 1.6
v 1.1 -0.05 1.6
v 1.1 0.05 1.6
v 1.6 -0.05 1.6
v 1.6 0.05 1.6
v -1.6 -0.05 -1.6
v -1.6 0.05 -1.6
v -1.1 -0.05 -1.6
v -1.1 0.05 -1.6
v -0.1 -0.05 -1.6
v -0.1 0.05 -1.6
v 0 -0.05 -1.6
v 0 0.05 -1.6
v 1.1 -0.05 -1.6
v 1.1 0.05 -1.6
v 1.6 -0.05 -1.6
v 1.6 0.05 -1.6
v -1.6 -0.05 1.6
v -1.1 -0.05 1.6
v -0.1 -0.05 1.6
v 0 -0.05 1.6
v 1.1 -0.05 1.6
v 1.6 -0.05 1.6
v -0.1 -0.05 1.3
v 0 -0.05 1.3
v -0.1 -0.05 1.1
v 0 -0.05 1.1
v -0.1 -0.05 0.5
v 0 -0.05 0.5
v -0.1 -0.05 0.3
v 0 -0.05 0.3
v -0.1 -0.05 -0.3
v 0 -0.05 -0.3
v -0.1 -0.05 -0.5
v 0 -0.05 -0.5
v -0.1 -0.05 -1.1
v 0 -0.05 -1.1
v -0.1 -0.05 -1.3
v 0 -0.05 -1.3
v -1.6 -0.05 -1.6
v -1.1 -0.05 -1.6
v -0.1 -0.05 -1.6
v 0 -0.05 -1.6
v 1.1 -0.05 -1.6
v 1.6 -0.05 -1.6
v -1.6 0.05 1.6
v -1.1 0.05 1.6
v -0.1 0.05 1.6
v 0 0.05 1.6
v 1.1 0.05 1.6
v 1.6 0.05 1.6
v -0.1 0.05 1.3
v 0 0.05 1.3
v -0.1 0.05 1.1
v 0 0.05 1.1
v -0.1 0.05 0.5
v 0 0.05 0.5
v -0.1 0.05 0.3
v 0 0.05 0.3
v -0.1 0.05 -0.3
v 0 0.05 -0.3
v -0.1 0.05 -0.5
v 0 0.05 -0.5
v -0.1 0.05 -1.1
v 0 0.05 -1.1
v -0.1 0.05 -1.3
v 0 0.05 -1.3
v -1.6 0.05 -1.6
v -1.1 0.05 -1.6
v -0.1 0.05 -1.6
v 0 0.05 -1.6
v 1.1 0.05 -1.6
v 1.6 0.05 -1.6

# faces
f 3/2/1 2/2/1 1/2/1
f 4/2/1 2/2/1 3/2/1
f 5/2/2 6/2/2 7/2/2
f 7/2/2 6/2/2 8/2/2
f 11/2/3 10/2/3 9/2/3
f 12/2/3 10/2/3 11/2/3
f 13/3/3 12/3/3 11/3/3
f 14/3/3 12/3/3 13/3/3
f 15/1/3 14/1/3 13/1/3
f 16/1/3 14/1/3 15/1/3
f 17/3/3 16/3/3 15/3/3
f 18/3/3 16/3/3 17/3/3
f 19/2/3 18/2/3 17/2/3
f 20/2/3 18/2/3 19/2/3
f 21/2/4 22/2/4 23/2/4
f 23/2/4 22/2/4 24/2/4
f 23/3/4 24/3/4 25/3/4
f 25/3/4 24/3/4 26/3/4
f 25/1/4 26/1/4 27/1/4
f 27/1/4 26/1/4 28/1/4
f 27/3/4 28/3/4 29/3/4
f 29/3/4 28/3/4 30/3/4
f 29/2/4 30/2/4 31/2/4
f 31/2/4 30/2/4 32/2/4
f 39/3/5 35/3/5 34/3/5
f 39/1/5 36/1/5 35/1/5
f 40/3/5 37/3/5 36/3/5
f 40/1/5 36/1/5 39/1/5
f 41/3/5 39/3/5 34/3/5
f 41/3/5 40/3/5 39/3/5
f 42/3/5 37/3/5 40/3/5
f 42/3/5 40/3/5 41/3/5
f 43/3/5 41/3/5 34/3/5
f 43/1/5 42/1/5 41/1/5
f 44/3/5 37/3/5 42/3/5
f 44/1/5 42/1/5 43/1/5
f 45/3/5 43/3/5 34/3/5
f 45/3/5 44/3/5 43/3/5
f 46/3/5 37/3/5 44/3/5
f 46/3/5 44/3/5 45/3/5
f 47/3/5 45/3/5 34/3/5
f 47/1/5 46/1/5 45/1/5
f 48/3/5 37/3/5 46/3/5
f 48/1/5 46/1/5 47/1/5
f 49/3/5 47/3/5 34/3/5
f 49/3/5 48/3/5 47/3/5
f 50/3/5 37/3/5 48/3/5
f 50/3/5 48/3/5 49/3/5
f 51/3/5 49/3/5 34/3/5
f 51/1/5 50/1/5 49/1/5
f 52/3/5 37/3/5 50/3/5
f 52/1/5 50/1/5 51/1/5
f 53/3/5 51/3/5 34/3/5
f 53/3/5 52/3/5 51/3/5
f 54/3/5 37/3/5 52/3/5
f 54/3/5 52/3/5 53/3/5
f 55/2/5 34/2/5 33/2/5
f 56/3/5 53/3/5 34/3/5
f 56/2/5 34/2/5 55/2/5
f 57/1/5 54/1/5 53/1/5
f 57/3/5 53/3/5 56/3/5
f 58/3/5 37/3/5 54/3/5
f 58/1/5 54/1/5 57/1/5
f 59/2/5 38/2/5 37/2/5
f 59/3/5 37/3/5 58/3/5
f 60/2/5 38/2/5 59/2/5
f 62/3/6 63/3/6 67/3/6
f 63/1/6 64/1/6 67/1/6
f 64/3/6 65/3/6 68/3/6
f 67/1/6 64/1/6 68/1/6
f 62/3/6 67/3/6 69/3/6
f 67/3/6 68/3/6 69/3/6
f 68/3/6 65/3/6 70/3/6
f 69/3/6 68/3/6 70/3/6
f 62/3/6 69/3/6 71/3/6
f 69/1/6 70/1/6 71/1/6
f 70/3/6 65/3/6 72/3/6
f 71/1/6 70/1/6 72/1/6
f 62/3/6 71/3/6 73/3/6
f 71/3/6 72/3/6 73/3/6
f 72/3/6 65/3/6 74/3/6
f 73/3/6 72/3/6 74/3/6
f 62/3/6 73/3/6 75/3/6
f 73/1/6 74/1/6 75/1/6
f 74/3/6 65/3/6 76/3/6
f 75/1/6 74/1/6 76/1/6
f 62/3/6 75/3/6 77/3/6
f 75/3/6 76/3/6 77/3/6
f 76/3/6 65/3/6 78/3/6
f 77/3/6 76/3/6 78/3/6
f 62/3/6 77/3/6 79/3/6
f 77/1/6 78/1/6 79/1/6
f 78/3/6 65/3/6 80/3/6
f 79/1/6 78/1/6 80/1/6
f 62/3/6 79/3/6 81/3/6
f 79/3/6 80/3/6 81/3/6
f 80/3/6 65/3/6 82/3/6
f 81/3/6 80/3/6 82/3/6
f 61/2/6 62/2/6 83/2/6
f 62/3/6 81/3/6 84/3/6
f 83/2/6 62/2/6 84/2/6
f 81/1/6 82/1/6 85/1/6
f 84/3/6 81/3/6 85/3/6
f 82/3/6 65/3/6 86/3/6
f 85/1/6 82/1/6 86/1/6
f 65/2/6 66/2/6 87/2/6
f 86/3/6 65/3/6 87/3/6
f 87/2/6 66/2/6 88/2/6
