# MagicaVoxel @ Ephtracy

# group
o WhiteBuilding

# material
mtllib cars-9-WhiteBuilding.mtl
usemtl palette

# normals
vn -1 0 0
vn 1 0 0
vn 0 0 1
vn 0 0 -1
vn 0 -1 0
vn 0 1 0

# texcoords
vt 0.0136719 0.5
vt 0.0488281 0.5
vt 0.0527344 0.5
vt 0.0683594 0.5
vt 0.0722656 0.5

# verts
v -1 -0.8 1
v -1 -0.8 0.6
v -1 -0.8 -0.6
v -1 -0.8 -1
v -1 -0.7 0.6
v -1 -0.7 -0.6
v -1 0.1 0.6
v -1 0.1 -0.6
v -1 0.2 0.8
v -1 0.2 -0.8
v -1 0.5 0.8
v -1 0.5 -0.8
v -1 0.7 1
v -1 0.7 0.9
v -1 0.8 1
v -1 0.8 0.9
v -1 0.8 -1
v -0.9 -0.7 0.6
v -0.9 -0.7 -0.6
v -0.9 0.1 0.6
v -0.9 0.1 -0.6
v -0.9 0.2 0.8
v -0.9 0.2 -0.8
v -0.9 0.5 0.8
v -0.9 0.5 -0.8
v 0.8 -0.6 1
v 0.8 -0.6 0.9
v 0.8 -0.6 -0.9
v 0.8 -0.6 -1
v 0.8 -0.3 1
v 0.8 -0.3 0.9
v 0.8 -0.3 -0.9
v 0.8 -0.3 -1
v 0.8 -0.2 1
v 0.8 -0.2 0.9
v 0.8 -0.2 -0.9
v 0.8 -0.2 -1
v 0.8 0.1 1
v 0.8 0.1 0.9
v 0.8 0.1 -0.9
v 0.8 0.1 -1
v 0.8 0.2 1
v 0.8 0.2 0.9
v 0.8 0.2 -0.9
v 0.8 0.2 -1
v 0.8 0.5 1
v 0.8 0.5 0.9
v 0.8 0.5 -0.9
v 0.8 0.5 -1
v 0.9 -0.7 0.2
v 0.9 -0.7 -0.2
v 0.9 -0.6 0.2
v 0.9 -0.6 -0.2
v 0.9 -0.3 0.1
v 0.9 -0.3 -0.3
v 0.9 -0.2 0.1
v 0.9 -0.2 -0.3
v -0.8 -0.6 1
v -0.8 -0.6 0.9
v -0.8 -0.6 -0.9
v -0.8 -0.6 -1
v -0.8 -0.3 1
v -0.8 -0.3 0.9
v -0.8 -0.3 -0.9
v -0.8 -0.3 -1
v -0.8 -0.2 1
v -0.8 -0.2 0.9
v -0.8 -0.2 -0.9
v -0.8 -0.2 -1
v -0.8 0.1 1
v -0.8 0.1 0.9
v -0.8 0.1 -0.9
v -0.8 0.1 -1
v -0.8 0.2 1
v -0.8 0.2 0.9
v -0.8 0.2 -0.9
v -0.8 0.2 -1
v -0.8 0.5 1
v -0.8 0.5 0.9
v -0.8 0.5 -0.9
v -0.8 0.5 -1
v 0.7 -0.7 -0.1
v 0.7 -0.7 -0.2
v 0.7 -0.6 -0.1
v 0.7 -0.6 -0.2
v 0.8 -0.7 0.2
v 0.8 -0.7 -0.1
v 0.8 -0.6 0.2
v 0.8 -0.6 -0.1
v 0.8 -0.3 0.1
v 0.8 -0.3 -0.3
v 0.8 -0.2 0.1
v 0.8 -0.2 -0.3
v 0.9 -0.6 0.8
v 0.9 -0.6 -0.8
v 0.9 -0.3 0.8
v 0.9 -0.3 0.4
v 0.9 -0.3 -0.4
v 0.9 -0.3 -0.8
v 0.9 -0.2 0.8
v 0.9 -0.2 0.4
v 0.9 -0.2 -0.4
v 0.9 -0.2 -0.8
v 0.9 0.1 0.8
v 0.9 0.1 -0.8
v 0.9 0.2 0.8
v 0.9 0.2 -0.8
v 0.9 0.5 0.8
v 0.9 0.5 -0.8
v 1 -0.8 1
v 1 -0.8 -1
v 1 -0.6 0.8
v 1 -0.6 -0.8
v 1 -0.3 0.8
v 1 -0.3 0.4
v 1 -0.3 -0.4
v 1 -0.3 -0.8
v 1 -0.2 0.8
v 1 -0.2 0.4
v 1 -0.2 -0.4
v 1 -0.2 -0.8
v 1 0.1 0.8
v 1 0.1 -0.8
v 1 0.2 0.8
v 1 0.2 -0.8
v 1 0.5 0.8
v 1 0.5 -0.8
v 1 0.7 1
v 1 0.7 0.2
v 1 0.7 -0.2
v 1 0.7 -1
v 1 0.8 1
v 1 0.8 0.2
v 1 0.8 -0.2
v 1 0.8 -1
v -1 -0.8 1
v -1 0.7 1
v -1 0.8 1
v -0.8 -0.6 1
v -0.8 -0.3 1
v -0.8 -0.2 1
v -0.8 0.1 1
v -0.8 0.2 1
v -0.8 0.5 1
v -0.4 -0.3 1
v -0.4 -0.2 1
v -0.2 -0.3 1
v -0.2 -0.2 1
v 0.2 -0.3 1
v 0.2 -0.2 1
v 0.4 -0.3 1
v 0.4 -0.2 1
v 0.8 -0.6 1
v 0.8 -0.3 1
v 0.8 -0.2 1
v 0.8 0.1 1
v 0.8 0.2 1
v 0.8 0.5 1
v 1 -0.8 1
v 1 0.7 1
v 1 0.8 1
v -0.8 -0.6 0.9
v -0.8 -0.3 0.9
v -0.8 -0.2 0.9
v -0.8 0.1 0.9
v -0.8 0.2 0.9
v -0.8 0.5 0.9
v -0.4 -0.3 0.9
v -0.4 -0.2 0.9
v -0.2 -0.3 0.9
v -0.2 -0.2 0.9
v 0.2 -0.3 0.9
v 0.2 -0.2 0.9
v 0.4 -0.3 0.9
v 0.4 -0.2 0.9
v 0.8 -0.6 0.9
v 0.8 -0.3 0.9
v 0.8 -0.2 0.9
v 0.8 0.1 0.9
v 0.8 0.2 0.9
v 0.8 0.5 0.9
v 0.7 -0.7 -0.2
v 0.7 -0.6 -0.2
v 0.8 -0.6 -0.2
v 0.9 -0.7 -0.2
v 0.9 -0.6 -0.2
v 0.8 -0.3 -0.3
v 0.8 -0.2 -0.3
v 0.9 -0.3 -0.3
v 0.9 -0.2 -0.3
v -1 -0.7 -0.6
v -1 0.1 -0.6
v -0.9 -0.7 -0.6
v -0.9 0.1 -0.6
v -1 0.2 -0.8
v -1 0.5 -0.8
v -0.9 0.2 -0.8
v -0.9 0.5 -0.8
v 0.9 -0.6 -0.8
v 0.9 -0.3 -0.8
v 0.9 -0.2 -0.8
v 0.9 0.1 -0.8
v 0.9 0.2 -0.8
v 0.9 0.5 -0.8
v 1 -0.6 -0.8
v 1 -0.3 -0.8
v 1 -0.2 -0.8
v 1 0.1 -0.8
v 1 0.2 -0.8
v 1 0.5 -0.8
v -1 0.2 0.8
v -1 0.5 0.8
v -0.9 0.2 0.8
v -0.9 0.5 0.8
v 0.9 -0.6 0.8
v 0.9 -0.3 0.8
v 0.9 -0.2 0.8
v 0.9 0.1 0.8
v 0.9 0.2 0.8
v 0.9 0.5 0.8
v 1 -0.6 0.8
v 1 -0.3 0.8
v 1 -0.2 0.8
v 1 0.1 0.8
v 1 0.2 0.8
v 1 0.5 0.8
v -1 -0.7 0.6
v -1 0.1 0.6
v -0.9 -0.7 0.6
v -0.9 0.1 0.6
v 0.8 -0.7 0.2
v 0.8 -0.6 0.2
v 0.9 -0.7 0.2
v 0.9 -0.6 0.2
v 0.8 -0.3 0.1
v 0.8 -0.2 0.1
v 0.9 -0.3 0.1
v 0.9 -0.2 0.1
v 0.7 -0.7 -0.1
v 0.7 -0.6 -0.1
v 0.8 -0.7 -0.1
v 0.8 -0.6 -0.1
v -0.8 -0.6 -0.9
v -0.8 -0.3 -0.9
v -0.8 -0.2 -0.9
v -0.8 0.1 -0.9
v -0.8 0.2 -0.9
v -0.8 0.5 -0.9
v 0.8 -0.6 -0.9
v 0.8 -0.3 -0.9
v 0.8 -0.2 -0.9
v 0.8 0.1 -0.9
v 0.8 0.2 -0.9
v 0.8 0.5 -0.9
v -1 -0.8 -1
v -1 0.8 -1
v -0.8 -0.6 -1
v -0.8 -0.3 -1
v -0.8 -0.2 -1
v -0.8 0.1 -1
v -0.8 0.2 -1
v -0.8 0.5 -1
v 0.8 -0.6 -1
v 0.8 -0.3 -1
v 0.8 -0.2 -1
v 0.8 0.1 -1
v 0.8 0.2 -1
v 0.8 0.5 -1
v 0.9 0.7 -1
v 0.9 0.8 -1
v 1 -0.8 -1
v 1 0.7 -1
v 1 0.8 -1
v -1 -0.8 1
v 1 -0.8 1
v -1 -0.8 0.6
v -0.9 -0.8 0.6
v -0.8 -0.8 0.6
v -0.8 -0.8 0.3
v -0.6 -0.8 0.3
v -0.8 -0.8 0.2
v -0.6 -0.8 0.2
v -0.8 -0.8 -0.2
v -0.6 -0.8 -0.2
v -0.8 -0.8 -0.3
v -0.6 -0.8 -0.3
v -1 -0.8 -0.6
v -0.9 -0.8 -0.6
v -0.8 -0.8 -0.6
v -1 -0.8 -1
v 1 -0.8 -1
v 0.8 -0.6 0.2
v 0.9 -0.6 0.2
v 0.7 -0.6 -0.1
v 0.8 -0.6 -0.1
v 0.7 -0.6 -0.2
v 0.8 -0.6 -0.2
v 0.9 -0.6 -0.2
v -0.8 -0.3 1
v -0.4 -0.3 1
v -0.2 -0.3 1
v 0.2 -0.3 1
v 0.4 -0.3 1
v 0.8 -0.3 1
v -0.8 -0.3 0.9
v -0.4 -0.3 0.9
v -0.2 -0.3 0.9
v 0.2 -0.3 0.9
v 0.4 -0.3 0.9
v 0.8 -0.3 0.9
v 0.9 -0.3 0.8
v 1 -0.3 0.8
v 0.9 -0.3 0.4
v 1 -0.3 0.4
v 0.9 -0.3 -0.4
v 1 -0.3 -0.4
v 0.9 -0.3 -0.8
v 1 -0.3 -0.8
v -0.8 -0.3 -0.9
v 0.8 -0.3 -0.9
v -0.8 -0.3 -1
v 0.8 -0.3 -1
v 0.8 -0.2 0.1
v 0.9 -0.2 0.1
v 0.8 -0.2 -0.3
v 0.9 -0.2 -0.3
v -0.8 0.1 1
v 0.8 0.1 1
v -0.8 0.1 0.9
v 0.8 0.1 0.9
v 0.9 0.1 0.8
v 1 0.1 0.8
v -1 0.1 0.6
v -0.9 0.1 0.6
v -1 0.1 -0.6
v -0.9 0.1 -0.6
v 0.9 0.1 -0.8
v 1 0.1 -0.8
v -0.8 0.1 -0.9
v 0.8 0.1 -0.9
v -0.8 0.1 -1
v 0.8 0.1 -1
v -0.8 0.5 1
v 0.8 0.5 1
v -0.8 0.5 0.9
v 0.8 0.5 0.9
v -1 0.5 0.8
v -0.9 0.5 0.8
v 0.9 0.5 0.8
v 1 0.5 0.8
v -1 0.5 -0.8
v -0.9 0.5 -0.8
v 0.9 0.5 -0.8
v 1 0.5 -0.8
v -0.8 0.5 -0.9
v 0.8 0.5 -0.9
v -0.8 0.5 -1
v 0.8 0.5 -1
v -1 -0.7 0.6
v -0.9 -0.7 0.6
v 0.8 -0.7 0.2
v 0.9 -0.7 0.2
v 0.7 -0.7 -0.1
v 0.8 -0.7 -0.1
v 0.7 -0.7 -0.2
v 0.9 -0.7 -0.2
v -1 -0.7 -0.6
v -0.9 -0.7 -0.6
v -0.8 -0.6 1
v 0.8 -0.6 1
v -0.8 -0.6 0.9
v 0.8 -0.6 0.9
v 0.9 -0.6 0.8
v 1 -0.6 0.8
v 0.9 -0.6 -0.8
v 1 -0.6 -0.8
v -0.8 -0.6 -0.9
v 0.8 -0.6 -0.9
v -0.8 -0.6 -1
v 0.8 -0.6 -1
v 0.8 -0.3 0.1
v 0.9 -0.3 0.1
v 0.8 -0.3 -0.3
v 0.9 -0.3 -0.3
v -0.8 -0.2 1
v -0.4 -0.2 1
v -0.2 -0.2 1
v 0.2 -0.2 1
v 0.4 -0.2 1
v 0.8 -0.2 1
v -0.8 -0.2 0.9
v -0.4 -0.2 0.9
v -0.2 -0.2 0.9
v 0.2 -0.2 0.9
v 0.4 -0.2 0.9
v 0.8 -0.2 0.9
v 0.9 -0.2 0.8
v 1 -0.2 0.8
v 0.9 -0.2 0.4
v 1 -0.2 0.4
v 0.9 -0.2 -0.4
v 1 -0.2 -0.4
v 0.9 -0.2 -0.8
v 1 -0.2 -0.8
v -0.8 -0.2 -0.9
v 0.8 -0.2 -0.9
v -0.8 -0.2 -1
v 0.8 -0.2 -1
v -0.8 0.2 1
v 0.8 0.2 1
v -0.8 0.2 0.9
v 0.8 0.2 0.9
v -1 0.2 0.8
v -0.9 0.2 0.8
v 0.9 0.2 0.8
v 1 0.2 0.8
v -1 0.2 -0.8
v -0.9 0.2 -0.8
v 0.9 0.2 -0.8
v 1 0.2 -0.8
v -0.8 0.2 -0.9
v 0.8 0.2 -0.9
v -0.8 0.2 -1
v 0.8 0.2 -1
v -1 0.8 1
v 1 0.8 1
v -1 0.8 0.9
v 0.9 0.8 0.9
v 0.9 0.8 0.2
v 1 0.8 0.2
v 0.9 0.8 -0.2
v 1 0.8 -0.2
v -1 0.8 -1
v 0.9 0.8 -1
v 1 0.8 -1

# faces
f 5/2/1 2/2/1 1/2/1
f 5/4/1 3/4/1 2/4/1
f 6/2/1 4/2/1 3/2/1
f 6/4/1 3/4/1 5/4/1
f 7/2/1 5/2/1 1/2/1
f 8/2/1 4/2/1 6/2/1
f 9/2/1 7/2/1 1/2/1
f 9/2/1 8/2/1 7/2/1
f 10/2/1 4/2/1 8/2/1
f 10/2/1 8/2/1 9/2/1
f 11/2/1 9/2/1 1/2/1
f 12/2/1 4/2/1 10/2/1
f 13/2/1 11/2/1 1/2/1
f 13/2/1 12/2/1 11/2/1
f 14/2/1 12/2/1 13/2/1
f 15/4/1 14/4/1 13/4/1
f 16/2/1 12/2/1 14/2/1
f 16/4/1 14/4/1 15/4/1
f 17/2/1 4/2/1 12/2/1
f 17/2/1 12/2/1 16/2/1
f 20/5/1 19/5/1 18/5/1
f 21/5/1 19/5/1 20/5/1
f 24/5/1 23/5/1 22/5/1
f 25/5/1 23/5/1 24/5/1
f 30/2/1 27/2/1 26/2/1
f 31/2/1 27/2/1 30/2/1
f 32/2/1 29/2/1 28/2/1
f 33/2/1 29/2/1 32/2/1
f 38/2/1 35/2/1 34/2/1
f 39/2/1 35/2/1 38/2/1
f 40/2/1 37/2/1 36/2/1
f 41/2/1 37/2/1 40/2/1
f 46/2/1 43/2/1 42/2/1
f 47/2/1 43/2/1 46/2/1
f 48/2/1 45/2/1 44/2/1
f 49/2/1 45/2/1 48/2/1
f 52/2/1 51/2/1 50/2/1
f 53/2/1 51/2/1 52/2/1
f 56/2/1 55/2/1 54/2/1
f 57/2/1 55/2/1 56/2/1
f 58/2/2 59/2/2 62/2/2
f 62/2/2 59/2/2 63/2/2
f 60/2/2 61/2/2 64/2/2
f 64/2/2 61/2/2 65/2/2
f 66/2/2 67/2/2 70/2/2
f 70/2/2 67/2/2 71/2/2
f 68/2/2 69/2/2 72/2/2
f 72/2/2 69/2/2 73/2/2
f 74/2/2 75/2/2 78/2/2
f 78/2/2 75/2/2 79/2/2
f 76/2/2 77/2/2 80/2/2
f 80/2/2 77/2/2 81/2/2
f 82/2/2 83/2/2 84/2/2
f 84/2/2 83/2/2 85/2/2
f 86/5/2 87/5/2 88/5/2
f 88/5/2 87/5/2 89/5/2
f 90/2/2 91/2/2 92/2/2
f 92/2/2 91/2/2 93/2/2
f 94/5/2 95/5/2 96/5/2
f 96/5/2 95/5/2 97/5/2
f 97/5/2 95/5/2 98/5/2
f 98/5/2 95/5/2 99/5/2
f 100/5/2 101/5/2 104/5/2
f 102/5/2 103/5/2 104/5/2
f 101/5/2 102/5/2 104/5/2
f 104/5/2 103/5/2 105/5/2
f 106/5/2 107/5/2 108/5/2
f 108/5/2 107/5/2 109/5/2
f 110/2/2 111/2/2 112/2/2
f 112/2/2 111/2/2 113/2/2
f 110/2/2 112/2/2 114/2/2
f 113/2/2 111/2/2 117/2/2
f 110/2/2 114/2/2 118/2/2
f 114/4/2 115/4/2 118/4/2
f 115/2/2 116/2/2 119/2/2
f 118/4/2 115/4/2 119/4/2
f 116/4/2 117/4/2 120/4/2
f 119/2/2 116/2/2 120/2/2
f 117/2/2 111/2/2 121/2/2
f 120/4/2 117/4/2 121/4/2
f 110/2/2 118/2/2 122/2/2
f 121/2/2 111/2/2 123/2/2
f 110/2/2 122/2/2 124/2/2
f 122/2/2 123/2/2 124/2/2
f 123/2/2 111/2/2 125/2/2
f 124/2/2 123/2/2 125/2/2
f 110/2/2 124/2/2 126/2/2
f 125/2/2 111/2/2 127/2/2
f 110/2/2 126/2/2 128/2/2
f 126/2/2 127/2/2 128/2/2
f 128/2/2 127/2/2 129/2/2
f 129/2/2 127/2/2 130/2/2
f 127/2/2 111/2/2 131/2/2
f 130/2/2 127/2/2 131/2/2
f 128/4/2 129/4/2 132/4/2
f 129/2/2 130/2/2 133/2/2
f 132/4/2 129/4/2 133/4/2
f 130/4/2 131/4/2 134/4/2
f 133/2/2 130/2/2 134/2/2
f 134/4/2 131/4/2 135/4/2
f 139/2/3 137/2/3 136/2/3
f 140/2/3 137/2/3 139/2/3
f 141/2/3 137/2/3 140/2/3
f 142/2/3 137/2/3 141/2/3
f 143/2/3 137/2/3 142/2/3
f 144/2/3 137/2/3 143/2/3
f 145/4/3 141/4/3 140/4/3
f 146/4/3 141/4/3 145/4/3
f 147/2/3 146/2/3 145/2/3
f 148/2/3 146/2/3 147/2/3
f 149/4/3 148/4/3 147/4/3
f 150/4/3 148/4/3 149/4/3
f 151/2/3 150/2/3 149/2/3
f 152/2/3 150/2/3 151/2/3
f 153/2/3 139/2/3 136/2/3
f 154/4/3 152/4/3 151/4/3
f 155/4/3 152/4/3 154/4/3
f 156/2/3 143/2/3 142/2/3
f 157/2/3 143/2/3 156/2/3
f 158/2/3 137/2/3 144/2/3
f 159/2/3 155/2/3 154/2/3
f 159/2/3 158/2/3 157/2/3
f 159/2/3 157/2/3 156/2/3
f 159/2/3 154/2/3 153/2/3
f 159/2/3 156/2/3 155/2/3
f 159/2/3 153/2/3 136/2/3
f 160/4/3 138/4/3 137/4/3
f 160/2/3 158/2/3 159/2/3
f 160/2/3 137/2/3 158/2/3
f 161/4/3 138/4/3 160/4/3
f 168/5/3 163/5/3 162/5/3
f 169/5/3 165/5/3 164/5/3
f 170/5/3 168/5/3 162/5/3
f 171/5/3 165/5/3 169/5/3
f 172/5/3 170/5/3 162/5/3
f 173/5/3 165/5/3 171/5/3
f 174/5/3 172/5/3 162/5/3
f 175/5/3 165/5/3 173/5/3
f 176/5/3 174/5/3 162/5/3
f 177/5/3 174/5/3 176/5/3
f 178/5/3 165/5/3 175/5/3
f 179/5/3 165/5/3 178/5/3
f 180/5/3 167/5/3 166/5/3
f 181/5/3 167/5/3 180/5/3
f 184/2/3 183/2/3 182/2/3
f 185/2/3 184/2/3 182/2/3
f 186/2/3 184/2/3 185/2/3
f 189/1/3 188/1/3 187/1/3
f 190/1/3 188/1/3 189/1/3
f 193/2/3 192/2/3 191/2/3
f 194/2/3 192/2/3 193/2/3
f 197/2/3 196/2/3 195/2/3
f 198/2/3 196/2/3 197/2/3
f 205/2/3 200/2/3 199/2/3
f 206/2/3 200/2/3 205/2/3
f 207/2/3 202/2/3 201/2/3
f 208/2/3 202/2/3 207/2/3
f 209/2/3 204/2/3 203/2/3
f 210/2/3 204/2/3 209/2/3
f 211/2/4 212/2/4 213/2/4
f 213/2/4 212/2/4 214/2/4
f 215/2/4 216/2/4 221/2/4
f 221/2/4 216/2/4 222/2/4
f 217/2/4 218/2/4 223/2/4
f 223/2/4 218/2/4 224/2/4
f 219/2/4 220/2/4 225/2/4
f 225/2/4 220/2/4 226/2/4
f 227/2/4 228/2/4 229/2/4
f 229/2/4 228/2/4 230/2/4
f 231/2/4 232/2/4 233/2/4
f 233/2/4 232/2/4 234/2/4
f 235/2/4 236/2/4 237/2/4
f 237/2/4 236/2/4 238/2/4
f 239/5/4 240/5/4 241/5/4
f 241/5/4 240/5/4 242/5/4
f 243/5/4 244/5/4 249/5/4
f 249/5/4 244/5/4 250/5/4
f 245/5/4 246/5/4 251/5/4
f 251/5/4 246/5/4 252/5/4
f 247/5/4 248/5/4 253/5/4
f 253/5/4 248/5/4 254/5/4
f 255/2/4 256/2/4 257/2/4
f 257/2/4 256/2/4 258/2/4
f 258/2/4 256/2/4 259/2/4
f 259/2/4 256/2/4 260/2/4
f 260/2/4 256/2/4 261/2/4
f 261/2/4 256/2/4 262/2/4
f 255/2/4 257/2/4 263/2/4
f 258/2/4 259/2/4 264/2/4
f 264/2/4 259/2/4 265/2/4
f 260/2/4 261/2/4 266/2/4
f 266/2/4 261/2/4 267/2/4
f 262/2/4 256/2/4 268/2/4
f 266/2/4 267/2/4 269/2/4
f 267/2/4 268/2/4 269/2/4
f 268/2/4 256/2/4 269/2/4
f 264/2/4 265/2/4 269/2/4
f 265/2/4 266/2/4 269/2/4
f 263/2/4 264/2/4 269/2/4
f 269/2/4 256/2/4 270/2/4
f 255/2/4 263/2/4 271/2/4
f 263/2/4 269/2/4 271/2/4
f 269/4/4 270/4/4 272/4/4
f 271/2/4 269/2/4 272/2/4
f 272/4/4 270/4/4 273/4/4
f 276/2/5 275/2/5 274/2/5
f 277/2/5 275/2/5 276/2/5
f 278/2/5 275/2/5 277/2/5
f 279/5/5 278/5/5 277/5/5
f 279/2/5 275/2/5 278/2/5
f 280/2/5 275/2/5 279/2/5
f 281/5/5 279/5/5 277/5/5
f 281/4/5 280/4/5 279/4/5
f 282/2/5 275/2/5 280/2/5
f 282/4/5 280/4/5 281/4/5
f 283/5/5 281/5/5 277/5/5
f 283/2/5 282/2/5 281/2/5
f 284/2/5 275/2/5 282/2/5
f 284/2/5 282/2/5 283/2/5
f 285/5/5 283/5/5 277/5/5
f 285/4/5 284/4/5 283/4/5
f 286/2/5 275/2/5 284/2/5
f 286/4/5 284/4/5 285/4/5
f 287/4/5 277/4/5 276/4/5
f 288/5/5 285/5/5 277/5/5
f 288/4/5 277/4/5 287/4/5
f 289/2/5 286/2/5 285/2/5
f 289/5/5 285/5/5 288/5/5
f 290/2/5 288/2/5 287/2/5
f 290/2/5 289/2/5 288/2/5
f 291/2/5 275/2/5 286/2/5
f 291/2/5 289/2/5 290/2/5
f 291/2/5 286/2/5 289/2/5
f 295/5/5 293/5/5 292/5/5
f 296/2/5 295/2/5 294/2/5
f 297/5/5 293/5/5 295/5/5
f 297/2/5 295/2/5 296/2/5
f 298/5/5 293/5/5 297/5/5
f 305/4/5 300/4/5 299/4/5
f 306/2/5 301/2/5 300/2/5
f 306/4/5 300/4/5 305/4/5
f 307/4/5 302/4/5 301/4/5
f 307/2/5 301/2/5 306/2/5
f 308/2/5 303/2/5 302/2/5
f 308/4/5 302/4/5 307/4/5
f 309/4/5 304/4/5 303/4/5
f 309/2/5 303/2/5 308/2/5
f 310/4/5 304/4/5 309/4/5
f 313/4/5 312/4/5 311/4/5
f 314/4/5 312/4/5 313/4/5
f 315/2/5 314/2/5 313/2/5
f 316/2/5 314/2/5 315/2/5
f 317/4/5 316/4/5 315/4/5
f 318/4/5 316/4/5 317/4/5
f 321/2/5 320/2/5 319/2/5
f 322/2/5 320/2/5 321/2/5
f 325/5/5 324/5/5 323/5/5
f 326/5/5 324/5/5 325/5/5
f 329/2/5 328/2/5 327/2/5
f 330/2/5 328/2/5 329/2/5
f 335/2/5 334/2/5 333/2/5
f 336/2/5 334/2/5 335/2/5
f 337/2/5 332/2/5 331/2/5
f 338/2/5 332/2/5 337/2/5
f 341/2/5 340/2/5 339/2/5
f 342/2/5 340/2/5 341/2/5
f 345/2/5 344/2/5 343/2/5
f 346/2/5 344/2/5 345/2/5
f 351/2/5 348/2/5 347/2/5
f 352/2/5 348/2/5 351/2/5
f 353/2/5 350/2/5 349/2/5
f 354/2/5 350/2/5 353/2/5
f 357/2/5 356/2/5 355/2/5
f 358/2/5 356/2/5 357/2/5
f 361/2/6 362/2/6 364/2/6
f 363/2/6 364/2/6 365/2/6
f 364/2/6 362/2/6 366/2/6
f 365/2/6 364/2/6 366/2/6
f 359/4/6 360/4/6 367/4/6
f 367/4/6 360/4/6 368/4/6
f 369/2/6 370/2/6 371/2/6
f 371/2/6 370/2/6 372/2/6
f 373/2/6 374/2/6 375/2/6
f 375/2/6 374/2/6 376/2/6
f 377/2/6 378/2/6 379/2/6
f 379/2/6 378/2/6 380/2/6
f 381/5/6 382/5/6 383/5/6
f 383/5/6 382/5/6 384/5/6
f 385/4/6 386/4/6 391/4/6
f 386/2/6 387/2/6 392/2/6
f 391/4/6 386/4/6 392/4/6
f 387/4/6 388/4/6 393/4/6
f 392/2/6 387/2/6 393/2/6
f 388/2/6 389/2/6 394/2/6
f 393/4/6 388/4/6 394/4/6
f 389/4/6 390/4/6 395/4/6
f 394/2/6 389/2/6 395/2/6
f 395/4/6 390/4/6 396/4/6
f 397/4/6 398/4/6 399/4/6
f 399/4/6 398/4/6 400/4/6
f 399/2/6 400/2/6 401/2/6
f 401/2/6 400/2/6 402/2/6
f 401/4/6 402/4/6 403/4/6
f 403/4/6 402/4/6 404/4/6
f 405/2/6 406/2/6 407/2/6
f 407/2/6 406/2/6 408/2/6
f 409/2/6 410/2/6 411/2/6
f 411/2/6 410/2/6 412/2/6
f 413/2/6 414/2/6 417/2/6
f 417/2/6 414/2/6 418/2/6
f 415/2/6 416/2/6 419/2/6
f 419/2/6 416/2/6 420/2/6
f 421/2/6 422/2/6 423/2/6
f 423/2/6 422/2/6 424/2/6
f 425/4/6 426/4/6 427/4/6
f 427/4/6 426/4/6 428/4/6
f 427/2/6 428/2/6 429/2/6
f 428/4/6 426/4/6 429/4/6
f 429/4/6 426/4/6 430/4/6
f 427/2/6 429/2/6 431/2/6
f 429/2/6 430/2/6 431/2/6
f 431/2/6 430/2/6 432/2/6
f 427/2/6 431/2/6 433/2/6
f 431/4/6 432/4/6 434/4/6
f 433/2/6 431/2/6 434/2/6
f 434/4/6 432/4/6 435/4/6
