# MagicaVoxel @ Ephtracy

# group
o CenterHospital

# material
mtllib cars-15-CenterHospital.mtl
usemtl palette

# normals
vn -1 0 0
vn 1 0 0
vn 0 0 1
vn 0 0 -1
vn 0 -1 0
vn 0 1 0

# texcoords
vt 0.0214844 0.5
vt 0.0644531 0.5
vt 0.0683594 0.5
vt 0.0722656 0.5

# verts
v -1.6 -1.6 0.8
v -1.6 -1.6 0.7
v -1.6 -1.6 -0.6
v -1.6 -1.6 -0.7
v -1.6 -0.5 0.9
v -1.6 -0.5 0.8
v -1.6 -0.5 0.7
v -1.6 -0.5 -0.6
v -1.6 -0.5 -0.7
v -1.6 -0.5 -0.8
v -1.6 -0.4 0.9
v -1.6 -0.4 -0.8
v -0.6 0 0.3
v -0.6 0 -0.2
v -0.6 0.4 0.7
v -0.6 0.4 0.3
v -0.6 0.4 -0.2
v -0.6 0.4 -0.6
v -0.6 0.9 0.7
v -0.6 0.9 0.3
v -0.6 0.9 -0.2
v -0.6 0.9 -0.6
v -0.6 1.3 0.3
v -0.6 1.3 -0.2
v -0.5 -1.6 1.6
v -0.5 -1.6 0.6
v -0.5 -1.6 -0.6
v -0.5 -1.6 -1.6
v -0.5 -1.3 1.4
v -0.5 -1.3 1
v -0.5 -1.3 -1
v -0.5 -1.3 -1.4
v -0.5 -0.6 0.6
v -0.5 -0.6 -0.6
v -0.5 -0.5 1.4
v -0.5 -0.5 1
v -0.5 -0.5 0.9
v -0.5 -0.5 -0.8
v -0.5 -0.5 -1
v -0.5 -0.5 -1.4
v -0.5 -0.4 0.9
v -0.5 -0.4 -0.8
v -0.5 0 0.3
v -0.5 0 -0.2
v -0.5 0.4 0.7
v -0.5 0.4 0.3
v -0.5 0.4 -0.2
v -0.5 0.4 -0.6
v -0.5 0.9 0.7
v -0.5 0.9 0.3
v -0.5 0.9 -0.2
v -0.5 0.9 -0.6
v -0.5 1.3 0.3
v -0.5 1.3 -0.2
v -0.5 1.6 1.6
v -0.5 1.6 -1.6
v -0.4 -1.6 0.6
v -0.4 -1.6 -0.6
v -0.4 -1.3 1.4
v -0.4 -1.3 1
v -0.4 -1.3 -1
v -0.4 -1.3 -1.4
v -0.4 -0.6 0.6
v -0.4 -0.6 -0.6
v -0.4 -0.5 1.4
v -0.4 -0.5 1
v -0.4 -0.5 -1
v -0.4 -0.5 -1.4
v -1.5 -1.6 0.8
v -1.5 -1.6 0.7
v -1.5 -1.6 -0.6
v -1.5 -1.6 -0.7
v -1.5 -0.5 0.8
v -1.5 -0.5 0.7
v -1.5 -0.5 -0.6
v -1.5 -0.5 -0.7
v 1.6 -1.6 1.6
v 1.6 -1.6 -1.6
v 1.6 1.6 1.6
v 1.6 1.6 -1.6
v -0.5 -1.6 1.6
v -0.5 1.6 1.6
v 1.6 -1.6 1.6
v 1.6 1.6 1.6
v -0.5 -1.3 1
v -0.5 -0.5 1
v -0.4 -1.3 1
v -0.4 -0.5 1
v -1.6 -0.5 0.9
v -1.6 -0.4 0.9
v -0.5 -0.5 0.9
v -0.5 -0.4 0.9
v -1.6 -1.6 0.8
v -1.6 -0.5 0.8
v -1.5 -1.6 0.8
v -1.5 -0.5 0.8
v -0.6 0.4 0.7
v -0.6 0.9 0.7
v -0.5 0.4 0.7
v -0.5 0.9 0.7
v -0.6 0 0.3
v -0.6 0.4 0.3
v -0.6 0.9 0.3
v -0.6 1.3 0.3
v -0.5 0 0.3
v -0.5 0.4 0.3
v -0.5 0.9 0.3
v -0.5 1.3 0.3
v -1.6 -1.6 -0.6
v -1.6 -0.5 -0.6
v -1.5 -1.6 -0.6
v -1.5 -0.5 -0.6
v -0.5 -1.6 -0.6
v -0.5 -0.6 -0.6
v -0.4 -1.6 -0.6
v -0.4 -0.6 -0.6
v -0.5 -1.3 -1.4
v -0.5 -0.5 -1.4
v -0.4 -1.3 -1.4
v -0.4 -0.5 -1.4
v -0.5 -1.3 1.4
v -0.5 -0.5 1.4
v -0.4 -1.3 1.4
v -0.4 -0.5 1.4
v -1.6 -1.6 0.7
v -1.6 -0.5 0.7
v -1.5 -1.6 0.7
v -1.5 -0.5 0.7
v -0.5 -1.6 0.6
v -0.5 -0.6 0.6
v -0.4 -1.6 0.6
v -0.4 -0.6 0.6
v -0.6 0 -0.2
v -0.6 0.4 -0.2
v -0.6 0.9 -0.2
v -0.6 1.3 -0.2
v -0.5 0 -0.2
v -0.5 0.4 -0.2
v -0.5 0.9 -0.2
v -0.5 1.3 -0.2
v -0.6 0.4 -0.6
v -0.6 0.9 -0.6
v -0.5 0.4 -0.6
v -0.5 0.9 -0.6
v -1.6 -1.6 -0.7
v -1.6 -0.5 -0.7
v -1.5 -1.6 -0.7
v -1.5 -0.5 -0.7
v -1.6 -0.5 -0.8
v -1.6 -0.4 -0.8
v -0.5 -0.5 -0.8
v -0.5 -0.4 -0.8
v -0.5 -1.3 -1
v -0.5 -0.5 -1
v -0.4 -1.3 -1
v -0.4 -0.5 -1
v -0.5 -1.6 -1.6
v -0.5 1.6 -1.6
v 1.6 -1.6 -1.6
v 1.6 1.6 -1.6
v -0.5 -1.6 1.6
v 1.6 -1.6 1.6
v -1.6 -1.6 0.8
v -1.5 -1.6 0.8
v -1.6 -1.6 0.7
v -1.5 -1.6 0.7
v -0.5 -1.6 0.6
v -0.4 -1.6 0.6
v -0.3 -1.6 0.6
v -1.6 -1.6 -0.6
v -1.5 -1.6 -0.6
v -0.5 -1.6 -0.6
v -0.4 -1.6 -0.6
v -0.3 -1.6 -0.6
v -1.6 -1.6 -0.7
v -1.5 -1.6 -0.7
v -0.5 -1.6 -1.6
v 1.6 -1.6 -1.6
v -0.5 -0.6 0.6
v -0.4 -0.6 0.6
v -0.5 -0.6 -0.6
v -0.4 -0.6 -0.6
v -0.5 -0.5 1.4
v -0.4 -0.5 1.4
v -0.5 -0.5 1
v -0.4 -0.5 1
v -1.6 -0.5 0.9
v -0.5 -0.5 0.9
v -1.6 -0.5 0.8
v -1.5 -0.5 0.8
v -1.6 -0.5 0.7
v -1.5 -0.5 0.7
v -1.6 -0.5 -0.6
v -1.5 -0.5 -0.6
v -1.6 -0.5 -0.7
v -1.5 -0.5 -0.7
v -1.6 -0.5 -0.8
v -0.5 -0.5 -0.8
v -0.5 -0.5 -1
v -0.4 -0.5 -1
v -0.5 -0.5 -1.4
v -0.4 -0.5 -1.4
v -0.6 0 0.3
v -0.5 0 0.3
v -0.6 0 -0.2
v -0.5 0 -0.2
v -0.6 0.4 0.7
v -0.5 0.4 0.7
v -0.6 0.4 0.3
v -0.5 0.4 0.3
v -0.6 0.4 -0.2
v -0.5 0.4 -0.2
v -0.6 0.4 -0.6
v -0.5 0.4 -0.6
v -0.5 -1.3 1.4
v -0.4 -1.3 1.4
v -0.5 -1.3 1
v -0.4 -1.3 1
v -0.5 -1.3 -1
v -0.4 -1.3 -1
v -0.5 -1.3 -1.4
v -0.4 -1.3 -1.4
v -1.6 -0.4 0.9
v -0.5 -0.4 0.9
v -1.6 -0.4 -0.8
v -0.5 -0.4 -0.8
v -0.6 0.9 0.7
v -0.5 0.9 0.7
v -0.6 0.9 0.3
v -0.5 0.9 0.3
v -0.6 0.9 -0.2
v -0.5 0.9 -0.2
v -0.6 0.9 -0.6
v -0.5 0.9 -0.6
v -0.6 1.3 0.3
v -0.5 1.3 0.3
v -0.6 1.3 -0.2
v -0.5 1.3 -0.2
v -0.5 1.6 1.6
v 1.6 1.6 1.6
v -0.5 1.6 -1.6
v 1.6 1.6 -1.6

# faces
f 6/2/1 2/2/1 1/2/1
f 7/2/1 2/2/1 6/2/1
f 8/2/1 4/2/1 3/2/1
f 9/2/1 4/2/1 8/2/1
f 11/2/1 7/2/1 6/2/1
f 11/2/1 10/2/1 9/2/1
f 11/2/1 9/2/1 8/2/1
f 11/2/1 8/2/1 7/2/1
f 11/2/1 6/2/1 5/2/1
f 12/2/1 10/2/1 11/2/1
f 16/1/1 14/1/1 13/1/1
f 17/1/1 14/1/1 16/1/1
f 19/1/1 16/1/1 15/1/1
f 19/1/1 18/1/1 17/1/1
f 19/1/1 17/1/1 16/1/1
f 20/1/1 18/1/1 19/1/1
f 21/1/1 18/1/1 20/1/1
f 22/1/1 18/1/1 21/1/1
f 23/1/1 21/1/1 20/1/1
f 24/1/1 21/1/1 23/1/1
f 29/3/1 26/3/1 25/3/1
f 30/3/1 26/3/1 29/3/1
f 31/3/1 28/3/1 27/3/1
f 32/3/1 28/3/1 31/3/1
f 33/3/1 26/3/1 30/3/1
f 34/3/1 31/3/1 27/3/1
f 35/3/1 29/3/1 25/3/1
f 36/3/1 34/3/1 33/3/1
f 36/3/1 33/3/1 30/3/1
f 37/3/1 34/3/1 36/3/1
f 38/3/1 31/3/1 34/3/1
f 38/3/1 34/3/1 37/3/1
f 39/3/1 31/3/1 38/3/1
f 40/3/1 28/3/1 32/3/1
f 41/3/1 37/3/1 36/3/1
f 41/3/1 36/3/1 35/3/1
f 42/3/1 39/3/1 38/3/1
f 42/3/1 40/3/1 39/3/1
f 43/3/1 42/3/1 41/3/1
f 44/3/1 42/3/1 43/3/1
f 45/3/1 43/3/1 41/3/1
f 46/3/1 43/3/1 45/3/1
f 47/3/1 42/3/1 44/3/1
f 48/3/1 42/3/1 47/3/1
f 49/3/1 45/3/1 41/3/1
f 52/3/1 42/3/1 48/3/1
f 53/3/1 50/3/1 49/3/1
f 54/3/1 52/3/1 51/3/1
f 55/3/1 41/3/1 35/3/1
f 55/3/1 54/3/1 53/3/1
f 55/3/1 35/3/1 25/3/1
f 55/3/1 53/3/1 49/3/1
f 55/3/1 49/3/1 41/3/1
f 56/3/1 52/3/1 54/3/1
f 56/3/1 54/3/1 55/3/1
f 56/3/1 28/3/1 40/3/1
f 56/3/1 40/3/1 42/3/1
f 56/3/1 42/3/1 52/3/1
f 63/4/1 58/4/1 57/4/1
f 64/4/1 58/4/1 63/4/1
f 65/4/1 60/4/1 59/4/1
f 66/4/1 60/4/1 65/4/1
f 67/4/1 62/4/1 61/4/1
f 68/4/1 62/4/1 67/4/1
f 69/2/2 70/2/2 73/2/2
f 73/2/2 70/2/2 74/2/2
f 71/2/2 72/2/2 75/2/2
f 75/2/2 72/2/2 76/2/2
f 77/3/2 78/3/2 79/3/2
f 79/3/2 78/3/2 80/3/2
f 83/3/3 82/3/3 81/3/3
f 84/3/3 82/3/3 83/3/3
f 87/3/3 86/3/3 85/3/3
f 88/3/3 86/3/3 87/3/3
f 91/2/3 90/2/3 89/2/3
f 92/2/3 90/2/3 91/2/3
f 95/2/3 94/2/3 93/2/3
f 96/2/3 94/2/3 95/2/3
f 99/1/3 98/1/3 97/1/3
f 100/1/3 98/1/3 99/1/3
f 105/1/3 102/1/3 101/1/3
f 106/1/3 102/1/3 105/1/3
f 107/1/3 104/1/3 103/1/3
f 108/1/3 104/1/3 107/1/3
f 111/2/3 110/2/3 109/2/3
f 112/2/3 110/2/3 111/2/3
f 115/3/3 114/3/3 113/3/3
f 116/3/3 114/3/3 115/3/3
f 119/3/3 118/3/3 117/3/3
f 120/3/3 118/3/3 119/3/3
f 121/3/4 122/3/4 123/3/4
f 123/3/4 122/3/4 124/3/4
f 125/2/4 126/2/4 127/2/4
f 127/2/4 126/2/4 128/2/4
f 129/3/4 130/3/4 131/3/4
f 131/3/4 130/3/4 132/3/4
f 133/1/4 134/1/4 137/1/4
f 137/1/4 134/1/4 138/1/4
f 135/1/4 136/1/4 139/1/4
f 139/1/4 136/1/4 140/1/4
f 141/1/4 142/1/4 143/1/4
f 143/1/4 142/1/4 144/1/4
f 145/2/4 146/2/4 147/2/4
f 147/2/4 146/2/4 148/2/4
f 149/2/4 150/2/4 151/2/4
f 151/2/4 150/2/4 152/2/4
f 153/3/4 154/3/4 155/3/4
f 155/3/4 154/3/4 156/3/4
f 157/3/4 158/3/4 159/3/4
f 159/3/4 158/3/4 160/3/4
f 165/2/5 164/2/5 163/2/5
f 166/2/5 164/2/5 165/2/5
f 167/3/5 162/3/5 161/3/5
f 168/3/5 162/3/5 167/3/5
f 169/3/5 162/3/5 168/3/5
f 173/4/5 169/4/5 168/4/5
f 174/3/5 162/3/5 169/3/5
f 174/4/5 169/4/5 173/4/5
f 175/2/5 171/2/5 170/2/5
f 176/2/5 171/2/5 175/2/5
f 177/3/5 173/3/5 172/3/5
f 177/3/5 174/3/5 173/3/5
f 178/3/5 162/3/5 174/3/5
f 178/3/5 174/3/5 177/3/5
f 181/3/5 180/3/5 179/3/5
f 182/3/5 180/3/5 181/3/5
f 185/3/5 184/3/5 183/3/5
f 186/3/5 184/3/5 185/3/5
f 189/2/5 188/2/5 187/2/5
f 190/2/5 188/2/5 189/2/5
f 192/2/5 188/2/5 190/2/5
f 193/2/5 192/2/5 191/2/5
f 194/2/5 188/2/5 192/2/5
f 194/2/5 192/2/5 193/2/5
f 196/2/5 188/2/5 194/2/5
f 197/2/5 196/2/5 195/2/5
f 198/2/5 188/2/5 196/2/5
f 198/2/5 196/2/5 197/2/5
f 201/3/5 200/3/5 199/3/5
f 202/3/5 200/3/5 201/3/5
f 205/1/5 204/1/5 203/1/5
f 206/1/5 204/1/5 205/1/5
f 209/1/5 208/1/5 207/1/5
f 210/1/5 208/1/5 209/1/5
f 213/1/5 212/1/5 211/1/5
f 214/1/5 212/1/5 213/1/5
f 215/3/6 216/3/6 217/3/6
f 217/3/6 216/3/6 218/3/6
f 219/3/6 220/3/6 221/3/6
f 221/3/6 220/3/6 222/3/6
f 223/2/6 224/2/6 225/2/6
f 225/2/6 224/2/6 226/2/6
f 227/1/6 228/1/6 229/1/6
f 229/1/6 228/1/6 230/1/6
f 231/1/6 232/1/6 233/1/6
f 233/1/6 232/1/6 234/1/6
f 235/1/6 236/1/6 237/1/6
f 237/1/6 236/1/6 238/1/6
f 239/3/6 240/3/6 241/3/6
f 241/3/6 240/3/6 242/3/6
