# MagicaVoxel @ Ephtracy

# group
o dino_body

# material
mtllib chr_dino2-0-dino_body-0-dino_body.mtl
usemtl palette

# normals
vn -1 0 0
vn 1 0 0
vn 0 0 1
vn 0 0 -1
vn 0 -1 0
vn 0 1 0

# texcoords
vt 0.00195313 0.5
vt 0.00976563 0.5
vt 0.0136719 0.5

# verts
v -0.5 0.6 0.5
v -0.5 0.6 -0.4
v -0.5 1.6 0.5
v -0.5 1.6 -0.4
v 0 1.1 -0.4
v 0 1.1 -0.6
v 0 1.5 -0.4
v 0 1.5 -0.6
v 0.2 1.1 -0.4
v 0.2 1.1 -0.6
v 0.2 1.5 -0.4
v 0.2 1.5 -0.6
v 0.7 0.6 0.5
v 0.7 0.6 -0.4
v 0.7 1.6 0.5
v 0.7 1.6 -0.4
v -0.5 0.6 0.5
v -0.5 1.6 0.5
v -0.1 0.8 0.5
v -0.1 1 0.5
v -0.1 1.1 0.5
v -0.1 1.3 0.5
v -0.1 1.4 0.5
v -0.1 1.6 0.5
v 0 0.6 0.5
v 0 0.8 0.5
v 0 1 0.5
v 0 1.1 0.5
v 0 1.3 0.5
v 0 1.4 0.5
v 0.2 0.6 0.5
v 0.2 0.8 0.5
v 0.2 1 0.5
v 0.2 1.1 0.5
v 0.2 1.3 0.5
v 0.2 1.4 0.5
v 0.3 0.8 0.5
v 0.3 1 0.5
v 0.3 1.1 0.5
v 0.3 1.3 0.5
v 0.3 1.4 0.5
v 0.3 1.6 0.5
v 0.7 0.6 0.5
v 0.7 1.6 0.5
v -0.5 0.6 -0.4
v -0.5 1.6 -0.4
v 0 0.6 -0.4
v 0 0.7 -0.4
v 0 1 -0.4
v 0 1.1 -0.4
v 0 1.5 -0.4
v 0 1.6 -0.4
v 0.2 0.6 -0.4
v 0.2 0.7 -0.4
v 0.2 1 -0.4
v 0.2 1.1 -0.4
v 0.2 1.5 -0.4
v 0.2 1.6 -0.4
v 0.7 0.6 -0.4
v 0.7 1.6 -0.4
v 0 1.1 -0.6
v 0 1.5 -0.6
v 0.2 1.1 -0.6
v 0.2 1.5 -0.6
v -0.5 0.6 0.5
v 0 0.6 0.5
v 0.2 0.6 0.5
v 0.7 0.6 0.5
v -0.5 0.6 -0.4
v 0 0.6 -0.4
v 0.2 0.6 -0.4
v 0.7 0.6 -0.4
v 0 1.1 -0.4
v 0.2 1.1 -0.4
v 0 1.1 -0.6
v 0.2 1.1 -0.6
v 0 1.5 -0.4
v 0.2 1.5 -0.4
v 0 1.5 -0.6
v 0.2 1.5 -0.6
v -0.5 1.6 0.5
v -0.1 1.6 0.5
v 0.3 1.6 0.5
v 0.7 1.6 0.5
v -0.1 1.6 0.4
v 0.3 1.6 0.4
v 0 1.6 -0.3
v 0.2 1.6 -0.3
v -0.5 1.6 -0.4
v 0 1.6 -0.4
v 0.2 1.6 -0.4
v 0.7 1.6 -0.4

# faces
f 3/3/1 2/3/1 1/3/1
f 4/3/1 2/3/1 3/3/1
f 7/2/1 6/2/1 5/2/1
f 8/2/1 6/2/1 7/2/1
f 9/2/2 10/2/2 11/2/2
f 11/2/2 10/2/2 12/2/2
f 13/3/2 14/3/2 15/3/2
f 15/3/2 14/3/2 16/3/2
f 19/3/3 18/3/3 17/3/3
f 20/3/3 18/3/3 19/3/3
f 21/3/3 18/3/3 20/3/3
f 22/3/3 18/3/3 21/3/3
f 23/3/3 18/3/3 22/3/3
f 24/3/3 18/3/3 23/3/3
f 25/3/3 19/3/3 17/3/3
f 26/1/3 20/1/3 19/1/3
f 26/3/3 19/3/3 25/3/3
f 27/3/3 21/3/3 20/3/3
f 27/1/3 20/1/3 26/1/3
f 28/1/3 22/1/3 21/1/3
f 28/3/3 21/3/3 27/3/3
f 29/3/3 23/3/3 22/3/3
f 29/1/3 22/1/3 28/1/3
f 30/1/3 24/1/3 23/1/3
f 30/3/3 23/3/3 29/3/3
f 31/1/3 26/1/3 25/1/3
f 31/1/3 27/1/3 26/1/3
f 31/1/3 30/1/3 29/1/3
f 31/1/3 29/1/3 28/1/3
f 31/1/3 28/1/3 27/1/3
f 32/1/3 30/1/3 31/1/3
f 33/1/3 30/1/3 32/1/3
f 34/1/3 30/1/3 33/1/3
f 35/1/3 30/1/3 34/1/3
f 36/1/3 24/1/3 30/1/3
f 36/1/3 30/1/3 35/1/3
f 37/3/3 32/3/3 31/3/3
f 37/1/3 33/1/3 32/1/3
f 38/3/3 34/3/3 33/3/3
f 38/1/3 33/1/3 37/1/3
f 39/1/3 35/1/3 34/1/3
f 39/3/3 34/3/3 38/3/3
f 40/3/3 36/3/3 35/3/3
f 40/1/3 35/1/3 39/1/3
f 41/1/3 24/1/3 36/1/3
f 41/3/3 36/3/3 40/3/3
f 42/1/3 24/1/3 41/1/3
f 43/3/3 38/3/3 37/3/3
f 43/3/3 40/3/3 39/3/3
f 43/3/3 42/3/3 41/3/3
f 43/3/3 41/3/3 40/3/3
f 43/3/3 37/3/3 31/3/3
f 43/3/3 39/3/3 38/3/3
f 44/3/3 42/3/3 43/3/3
f 45/3/4 46/3/4 47/3/4
f 47/3/4 46/3/4 48/3/4
f 48/3/4 46/3/4 49/3/4
f 49/3/4 46/3/4 50/3/4
f 50/3/4 46/3/4 51/3/4
f 51/3/4 46/3/4 52/3/4
f 47/1/4 48/1/4 53/1/4
f 48/3/4 49/3/4 54/3/4
f 53/1/4 48/1/4 54/1/4
f 49/1/4 50/1/4 55/1/4
f 54/3/4 49/3/4 55/3/4
f 55/1/4 50/1/4 56/1/4
f 51/1/4 52/1/4 57/1/4
f 57/1/4 52/1/4 58/1/4
f 53/3/4 54/3/4 59/3/4
f 55/3/4 56/3/4 59/3/4
f 57/3/4 58/3/4 59/3/4
f 56/3/4 57/3/4 59/3/4
f 54/3/4 55/3/4 59/3/4
f 59/3/4 58/3/4 60/3/4
f 61/2/4 62/2/4 63/2/4
f 63/2/4 62/2/4 64/2/4
f 69/3/5 66/3/5 65/3/5
f 70/1/5 67/1/5 66/1/5
f 70/3/5 66/3/5 69/3/5
f 71/3/5 68/3/5 67/3/5
f 71/1/5 67/1/5 70/1/5
f 72/3/5 68/3/5 71/3/5
f 75/2/5 74/2/5 73/2/5
f 76/2/5 74/2/5 75/2/5
f 77/2/6 78/2/6 79/2/6
f 79/2/6 78/2/6 80/2/6
f 81/3/6 82/3/6 85/3/6
f 82/1/6 83/1/6 85/1/6
f 83/3/6 84/3/6 86/3/6
f 85/1/6 83/1/6 86/1/6
f 85/3/6 86/3/6 87/3/6
f 87/3/6 86/3/6 88/3/6
f 81/3/6 85/3/6 89/3/6
f 85/3/6 87/3/6 89/3/6
f 87/1/6 88/1/6 90/1/6
f 89/3/6 87/3/6 90/3/6
f 88/3/6 86/3/6 91/3/6
f 90/1/6 88/1/6 91/1/6
f 86/3/6 84/3/6 92/3/6
f 91/3/6 86/3/6 92/3/6
