# MagicaVoxel @ Ephtracy

# group
o L_arm

# material
mtllib chr_dino2-0-dino_body-4-L_arm.mtl
usemtl palette

# normals
vn -1 0 0
vn 1 0 0
vn 0 0 1
vn 0 0 -1
vn 0 -1 0
vn 0 1 0

# texcoords
vt 0.0136719 0.5
vt 0.0410156 0.5

# verts
v 0.7 0.9 0.4
v 0.7 0.9 0
v 0.7 1.3 0.4
v 0.7 1.3 0
v 0.8 0.5 0.5
v 0.8 0.5 0.4
v 0.8 0.7 0.5
v 0.8 0.7 0.4
v 0.9 0.6 0.4
v 0.9 0.6 0
v 0.9 0.7 0.4
v 0.9 0.9 0.4
v 0.9 0.9 0
v 1.2 0.5 0.5
v 1.2 0.5 0.4
v 1.2 0.5 0.1
v 1.2 0.5 0
v 1.2 0.6 0.4
v 1.2 0.6 0.1
v 1.2 0.6 0
v 1.2 0.7 0.5
v 1.2 0.7 0.4
v 0.9 0.5 0.5
v 0.9 0.5 0.4
v 0.9 0.6 0.4
v 0.9 0.7 0.5
v 0.9 0.7 0.4
v 1.2 0.6 0.4
v 1.2 0.6 0.1
v 1.2 0.7 0.4
v 1.2 0.7 0.1
v 1.2 0.7 0
v 1.2 1.3 0.4
v 1.2 1.3 0
v 1.3 0.5 0.5
v 1.3 0.5 0.4
v 1.3 0.5 0.1
v 1.3 0.5 0
v 1.3 0.7 0.5
v 1.3 0.7 0.4
v 1.3 0.7 0.1
v 1.3 0.7 0
v 0.8 0.5 0.5
v 0.8 0.7 0.5
v 0.9 0.5 0.5
v 0.9 0.7 0.5
v 1.2 0.5 0.5
v 1.2 0.7 0.5
v 1.3 0.5 0.5
v 1.3 0.7 0.5
v 0.7 0.9 0.4
v 0.7 1.3 0.4
v 0.9 0.6 0.4
v 0.9 0.7 0.4
v 0.9 0.9 0.4
v 1.2 0.6 0.4
v 1.2 0.7 0.4
v 1.2 1.3 0.4
v 1.2 0.5 0.1
v 1.2 0.6 0.1
v 1.2 0.7 0.1
v 1.3 0.5 0.1
v 1.3 0.7 0.1
v 0.8 0.5 0.4
v 0.8 0.7 0.4
v 0.9 0.5 0.4
v 0.9 0.6 0.4
v 0.9 0.7 0.4
v 1.2 0.5 0.4
v 1.2 0.6 0.4
v 1.2 0.7 0.4
v 1.3 0.5 0.4
v 1.3 0.7 0.4
v 0.7 0.9 0
v 0.7 1.3 0
v 0.9 0.6 0
v 0.9 0.9 0
v 1.2 0.5 0
v 1.2 0.6 0
v 1.2 0.7 0
v 1.2 1.3 0
v 1.3 0.5 0
v 1.3 0.7 0
v 0.8 0.5 0.5
v 0.9 0.5 0.5
v 1.2 0.5 0.5
v 1.3 0.5 0.5
v 0.8 0.5 0.4
v 0.9 0.5 0.4
v 1.2 0.5 0.4
v 1.3 0.5 0.4
v 1.2 0.5 0.1
v 1.3 0.5 0.1
v 1.2 0.5 0
v 1.3 0.5 0
v 0.9 0.6 0.4
v 1.2 0.6 0.4
v 1.2 0.6 0.1
v 0.9 0.6 0
v 1.2 0.6 0
v 0.7 0.9 0.4
v 0.9 0.9 0.4
v 0.7 0.9 0
v 0.9 0.9 0
v 0.8 0.7 0.5
v 0.9 0.7 0.5
v 1.2 0.7 0.5
v 1.3 0.7 0.5
v 0.8 0.7 0.4
v 0.9 0.7 0.4
v 1.2 0.7 0.4
v 1.3 0.7 0.4
v 1.2 0.7 0.1
v 1.3 0.7 0.1
v 1.2 0.7 0
v 1.3 0.7 0
v 0.7 1.3 0.4
v 1.2 1.3 0.4
v 0.7 1.3 0
v 1.2 1.3 0

# faces
f 3/1/1 2/1/1 1/1/1
f 4/1/1 2/1/1 3/1/1
f 7/2/1 6/2/1 5/2/1
f 8/2/1 6/2/1 7/2/1
f 11/1/1 10/1/1 9/1/1
f 12/1/1 10/1/1 11/1/1
f 13/1/1 10/1/1 12/1/1
f 18/2/1 15/2/1 14/2/1
f 19/2/1 17/2/1 16/2/1
f 20/2/1 17/2/1 19/2/1
f 21/2/1 18/2/1 14/2/1
f 22/2/1 18/2/1 21/2/1
f 23/2/2 24/2/2 25/2/2
f 23/2/2 25/2/2 26/2/2
f 26/2/2 25/2/2 27/2/2
f 28/1/2 29/1/2 30/1/2
f 30/1/2 29/1/2 31/1/2
f 30/1/2 31/1/2 33/1/2
f 31/1/2 32/1/2 33/1/2
f 33/1/2 32/1/2 34/1/2
f 35/2/2 36/2/2 39/2/2
f 39/2/2 36/2/2 40/2/2
f 37/2/2 38/2/2 41/2/2
f 41/2/2 38/2/2 42/2/2
f 45/2/3 44/2/3 43/2/3
f 46/2/3 44/2/3 45/2/3
f 49/2/3 48/2/3 47/2/3
f 50/2/3 48/2/3 49/2/3
f 55/1/3 52/1/3 51/1/3
f 56/1/3 54/1/3 53/1/3
f 56/1/3 55/1/3 54/1/3
f 57/1/3 55/1/3 56/1/3
f 58/1/3 52/1/3 55/1/3
f 58/1/3 55/1/3 57/1/3
f 62/2/3 60/2/3 59/2/3
f 62/2/3 61/2/3 60/2/3
f 63/2/3 61/2/3 62/2/3
f 64/2/4 65/2/4 66/2/4
f 66/2/4 65/2/4 67/2/4
f 67/2/4 65/2/4 68/2/4
f 69/2/4 70/2/4 72/2/4
f 70/2/4 71/2/4 72/2/4
f 72/2/4 71/2/4 73/2/4
f 74/1/4 75/1/4 77/1/4
f 76/1/4 77/1/4 79/1/4
f 79/1/4 77/1/4 80/1/4
f 77/1/4 75/1/4 81/1/4
f 80/1/4 77/1/4 81/1/4
f 79/2/4 80/2/4 82/2/4
f 78/2/4 79/2/4 82/2/4
f 82/2/4 80/2/4 83/2/4
f 88/2/5 85/2/5 84/2/5
f 89/2/5 85/2/5 88/2/5
f 90/2/5 87/2/5 86/2/5
f 91/2/5 87/2/5 90/2/5
f 94/2/5 93/2/5 92/2/5
f 95/2/5 93/2/5 94/2/5
f 98/1/5 97/1/5 96/1/5
f 99/1/5 98/1/5 96/1/5
f 100/1/5 98/1/5 99/1/5
f 103/1/5 102/1/5 101/1/5
f 104/1/5 102/1/5 103/1/5
f 105/2/6 106/2/6 109/2/6
f 109/2/6 106/2/6 110/2/6
f 107/2/6 108/2/6 111/2/6
f 111/2/6 108/2/6 112/2/6
f 113/2/6 114/2/6 115/2/6
f 115/2/6 114/2/6 116/2/6
f 117/1/6 118/1/6 119/1/6
f 119/1/6 118/1/6 120/1/6
