# MagicaVoxel @ Ephtracy

# group
o tail

# material
mtllib chr_dino2-0-dino_body-3-tail.mtl
usemtl palette

# normals
vn -1 0 0
vn 1 0 0
vn 0 0 1
vn 0 0 -1
vn 0 -1 0
vn 0 1 0

# texcoords
vt 0.00195313 0.5
vt 0.00976563 0.5
vt 0.0136719 0.5

# verts
v -0.1 0.5 -0.4
v -0.1 0.5 -1.1
v -0.1 0.9 -0.4
v -0.1 0.9 -0.7
v -0.1 1.1 -1.4
v -0.1 1.1 -1.6
v -0.1 1.3 -1.1
v -0.1 1.3 -1.4
v -0.1 1.7 -0.7
v -0.1 1.7 -1.6
v -4.47035e-08 1.7 -0.8
v -4.47035e-08 1.7 -1.1
v -4.47035e-08 1.7 -1.3
v -4.47035e-08 1.7 -1.5
v -4.47035e-08 1.9 -0.8
v -4.47035e-08 1.9 -1.1
v -4.47035e-08 1.9 -1.3
v -4.47035e-08 1.9 -1.5
v 0.2 1.7 -0.8
v 0.2 1.7 -1.1
v 0.2 1.7 -1.3
v 0.2 1.7 -1.5
v 0.2 1.9 -0.8
v 0.2 1.9 -1.1
v 0.2 1.9 -1.3
v 0.2 1.9 -1.5
v 0.3 0.5 -0.4
v 0.3 0.5 -1.1
v 0.3 0.9 -0.4
v 0.3 0.9 -0.7
v 0.3 1.1 -1.4
v 0.3 1.1 -1.6
v 0.3 1.3 -1.1
v 0.3 1.3 -1.4
v 0.3 1.7 -0.7
v 0.3 1.7 -1.6
v -0.1 0.5 -0.4
v -0.1 0.9 -0.4
v -4.47035e-08 0.5 -0.4
v -4.47035e-08 0.6 -0.4
v -4.47035e-08 0.8 -0.4
v -4.47035e-08 0.9 -0.4
v 0.2 0.5 -0.4
v 0.2 0.6 -0.4
v 0.2 0.8 -0.4
v 0.2 0.9 -0.4
v 0.3 0.5 -0.4
v 0.3 0.9 -0.4
v -0.1 0.9 -0.7
v -0.1 1.7 -0.7
v -4.47035e-08 0.9 -0.7
v -4.47035e-08 1.7 -0.7
v 0.2 0.9 -0.7
v 0.2 1.7 -0.7
v 0.3 0.9 -0.7
v 0.3 1.7 -0.7
v -4.47035e-08 1.7 -0.8
v -4.47035e-08 1.9 -0.8
v 0.2 1.7 -0.8
v 0.2 1.9 -0.8
v -4.47035e-08 1.7 -1.3
v -4.47035e-08 1.9 -1.3
v 0.2 1.7 -1.3
v 0.2 1.9 -1.3
v -0.1 1.1 -1.4
v -0.1 1.3 -1.4
v -4.47035e-08 1.1 -1.4
v -4.47035e-08 1.2 -1.4
v 0.2 1.1 -1.4
v 0.2 1.2 -1.4
v 0.3 1.1 -1.4
v 0.3 1.3 -1.4
v -0.1 0.5 -1.1
v -0.1 1.3 -1.1
v -4.47035e-08 0.5 -1.1
v -4.47035e-08 0.6 -1.1
v -4.47035e-08 1.7 -1.1
v -4.47035e-08 1.9 -1.1
v 0.2 0.5 -1.1
v 0.2 0.6 -1.1
v 0.2 1.7 -1.1
v 0.2 1.9 -1.1
v 0.3 0.5 -1.1
v 0.3 1.3 -1.1
v -4.47035e-08 1.7 -1.5
v -4.47035e-08 1.9 -1.5
v 0.2 1.7 -1.5
v 0.2 1.9 -1.5
v -0.1 1.1 -1.6
v -0.1 1.7 -1.6
v -4.47035e-08 1.1 -1.6
v -4.47035e-08 1.7 -1.6
v 0.2 1.1 -1.6
v 0.2 1.7 -1.6
v 0.3 1.1 -1.6
v 0.3 1.7 -1.6
v -0.1 0.5 -0.4
v -4.47035e-08 0.5 -0.4
v 0.2 0.5 -0.4
v 0.3 0.5 -0.4
v -0.1 0.5 -1.1
v -4.47035e-08 0.5 -1.1
v 0.2 0.5 -1.1
v 0.3 0.5 -1.1
v -0.1 1.1 -1.4
v -4.47035e-08 1.1 -1.4
v 0.2 1.1 -1.4
v 0.3 1.1 -1.4
v -0.1 1.1 -1.6
v -4.47035e-08 1.1 -1.6
v 0.2 1.1 -1.6
v 0.3 1.1 -1.6
v -0.1 1.3 -1.1
v 0.3 1.3 -1.1
v -0.1 1.3 -1.4
v 0.3 1.3 -1.4
v -0.1 0.9 -0.4
v -4.47035e-08 0.9 -0.4
v 0.2 0.9 -0.4
v 0.3 0.9 -0.4
v -0.1 0.9 -0.7
v -4.47035e-08 0.9 -0.7
v 0.2 0.9 -0.7
v 0.3 0.9 -0.7
v -0.1 1.7 -0.7
v -4.47035e-08 1.7 -0.7
v 0.2 1.7 -0.7
v 0.3 1.7 -0.7
v -4.47035e-08 1.7 -0.8
v 0.2 1.7 -0.8
v -4.47035e-08 1.7 -1.1
v 0.2 1.7 -1.1
v -4.47035e-08 1.7 -1.3
v 0.2 1.7 -1.3
v -4.47035e-08 1.7 -1.5
v 0.2 1.7 -1.5
v -0.1 1.7 -1.6
v -4.47035e-08 1.7 -1.6
v 0.2 1.7 -1.6
v 0.3 1.7 -1.6
v -4.47035e-08 1.9 -0.8
v 0.2 1.9 -0.8
v -4.47035e-08 1.9 -1.1
v 0.2 1.9 -1.1
v -4.47035e-08 1.9 -1.3
v 0.2 1.9 -1.3
v -4.47035e-08 1.9 -1.5
v 0.2 1.9 -1.5

# faces
f 3/3/1 2/3/1 1/3/1
f 4/3/1 2/3/1 3/3/1
f 7/3/1 2/3/1 4/3/1
f 8/3/1 6/3/1 5/3/1
f 9/3/1 7/3/1 4/3/1
f 9/3/1 8/3/1 7/3/1
f 10/3/1 6/3/1 8/3/1
f 10/3/1 8/3/1 9/3/1
f 15/2/1 12/2/1 11/2/1
f 16/2/1 12/2/1 15/2/1
f 17/2/1 14/2/1 13/2/1
f 18/2/1 14/2/1 17/2/1
f 19/2/2 20/2/2 23/2/2
f 23/2/2 20/2/2 24/2/2
f 21/2/2 22/2/2 25/2/2
f 25/2/2 22/2/2 26/2/2
f 27/3/2 28/3/2 29/3/2
f 29/3/2 28/3/2 30/3/2
f 30/3/2 28/3/2 33/3/2
f 31/3/2 32/3/2 34/3/2
f 30/3/2 33/3/2 35/3/2
f 33/3/2 34/3/2 35/3/2
f 34/3/2 32/3/2 36/3/2
f 35/3/2 34/3/2 36/3/2
f 39/3/3 38/3/3 37/3/3
f 40/3/3 38/3/3 39/3/3
f 41/3/3 38/3/3 40/3/3
f 42/3/3 38/3/3 41/3/3
f 43/1/3 40/1/3 39/1/3
f 44/3/3 41/3/3 40/3/3
f 44/1/3 40/1/3 43/1/3
f 45/1/3 42/1/3 41/1/3
f 45/3/3 41/3/3 44/3/3
f 46/1/3 42/1/3 45/1/3
f 47/3/3 44/3/3 43/3/3
f 47/3/3 45/3/3 44/3/3
f 47/3/3 46/3/3 45/3/3
f 48/3/3 46/3/3 47/3/3
f 51/3/3 50/3/3 49/3/3
f 52/3/3 50/3/3 51/3/3
f 53/1/3 52/1/3 51/1/3
f 54/1/3 52/1/3 53/1/3
f 55/3/3 54/3/3 53/3/3
f 56/3/3 54/3/3 55/3/3
f 59/2/3 58/2/3 57/2/3
f 60/2/3 58/2/3 59/2/3
f 63/2/3 62/2/3 61/2/3
f 64/2/3 62/2/3 63/2/3
f 67/3/3 66/3/3 65/3/3
f 68/3/3 66/3/3 67/3/3
f 69/1/3 68/1/3 67/1/3
f 70/3/3 66/3/3 68/3/3
f 70/1/3 68/1/3 69/1/3
f 71/3/3 70/3/3 69/3/3
f 72/3/3 66/3/3 70/3/3
f 72/3/3 70/3/3 71/3/3
f 73/3/4 74/3/4 75/3/4
f 75/3/4 74/3/4 76/3/4
f 75/1/4 76/1/4 79/1/4
f 76/3/4 74/3/4 80/3/4
f 79/1/4 76/1/4 80/1/4
f 77/2/4 78/2/4 81/2/4
f 81/2/4 78/2/4 82/2/4
f 79/3/4 80/3/4 83/3/4
f 80/3/4 74/3/4 84/3/4
f 83/3/4 80/3/4 84/3/4
f 85/2/4 86/2/4 87/2/4
f 87/2/4 86/2/4 88/2/4
f 89/3/4 90/3/4 91/3/4
f 91/3/4 90/3/4 92/3/4
f 91/1/4 92/1/4 93/1/4
f 93/1/4 92/1/4 94/1/4
f 93/3/4 94/3/4 95/3/4
f 95/3/4 94/3/4 96/3/4
f 101/3/5 98/3/5 97/3/5
f 102/1/5 99/1/5 98/1/5
f 102/3/5 98/3/5 101/3/5
f 103/3/5 100/3/5 99/3/5
f 103/1/5 99/1/5 102/1/5
f 104/3/5 100/3/5 103/3/5
f 109/3/5 106/3/5 105/3/5
f 110/1/5 107/1/5 106/1/5
f 110/3/5 106/3/5 109/3/5
f 111/3/5 108/3/5 107/3/5
f 111/1/5 107/1/5 110/1/5
f 112/3/5 108/3/5 111/3/5
f 115/3/5 114/3/5 113/3/5
f 116/3/5 114/3/5 115/3/5
f 117/3/6 118/3/6 121/3/6
f 118/1/6 119/1/6 122/1/6
f 121/3/6 118/3/6 122/3/6
f 119/3/6 120/3/6 123/3/6
f 122/1/6 119/1/6 123/1/6
f 123/3/6 120/3/6 124/3/6
f 125/3/6 126/3/6 129/3/6
f 126/1/6 127/1/6 129/1/6
f 127/3/6 128/3/6 130/3/6
f 129/1/6 127/1/6 130/1/6
f 125/3/6 129/3/6 131/3/6
f 130/3/6 128/3/6 132/3/6
f 125/3/6 131/3/6 133/3/6
f 131/1/6 132/1/6 133/1/6
f 132/3/6 128/3/6 134/3/6
f 133/1/6 132/1/6 134/1/6
f 125/3/6 133/3/6 135/3/6
f 134/3/6 128/3/6 136/3/6
f 125/3/6 135/3/6 137/3/6
f 135/1/6 136/1/6 138/1/6
f 137/3/6 135/3/6 138/3/6
f 136/3/6 128/3/6 139/3/6
f 138/1/6 136/1/6 139/1/6
f 139/3/6 128/3/6 140/3/6
f 141/2/6 142/2/6 143/2/6
f 143/2/6 142/2/6 144/2/6
f 145/2/6 146/2/6 147/2/6
f 147/2/6 146/2/6 148/2/6
