# MagicaVoxel @ Ephtracy

# group
o mouth

# material
mtllib chr_dino2-0-dino_body-1-mouth.mtl
usemtl palette

# normals
vn -1 0 0
vn 1 0 0
vn 0 0 1
vn 0 0 -1
vn 0 -1 0
vn 0 1 0

# texcoords
vt 0.00195313 0.5
vt 0.0136719 0.5
vt 0.0214844 0.5
vt 0.0410156 0.5

# verts
v -0.5 1.5 1.2
v -0.5 1.5 0.4
v -0.5 1.8 1.2
v -0.5 1.8 1
v -0.5 1.8 0.8
v -0.5 1.8 0.6
v -0.5 1.8 0.4
v -0.5 1.9 1.2
v -0.5 1.9 1
v -0.5 1.9 0.8
v -0.5 1.9 0.6
v -0.2 1.8 1.2
v -0.2 1.8 1.1
v -0.2 1.9 1.2
v -0.2 1.9 1.1
v -0.1 1.8 1
v -0.1 1.8 0.4
v -0.1 1.9 1
v -0.1 1.9 0.4
v 0.2 1.8 1.2
v 0.2 1.8 1.1
v 0.2 1.9 1.2
v 0.2 1.9 1.1
v 0.6 1.8 1.2
v 0.6 1.8 1.1
v 0.6 1.8 1
v 0.6 1.8 0.8
v 0.6 1.8 0.6
v 0.6 1.9 1.2
v 0.6 1.9 1
v 0.6 1.9 0.8
v 0.6 1.9 0.6
v -0.4 1.8 1.2
v -0.4 1.8 1.1
v -0.4 1.8 1
v -0.4 1.8 0.8
v -0.4 1.8 0.6
v -0.4 1.9 1.2
v -0.4 1.9 1
v -0.4 1.9 0.8
v -0.4 1.9 0.6
v 0 1.8 1.2
v 0 1.8 1.1
v 0 1.9 1.2
v 0 1.9 1.1
v 0.3 1.8 1
v 0.3 1.8 0.4
v 0.3 1.9 1
v 0.3 1.9 0.4
v 0.4 1.8 1.2
v 0.4 1.8 1.1
v 0.4 1.9 1.2
v 0.4 1.9 1.1
v 0.7 1.5 1.2
v 0.7 1.5 0.4
v 0.7 1.8 1.2
v 0.7 1.8 1
v 0.7 1.8 0.8
v 0.7 1.8 0.6
v 0.7 1.8 0.4
v 0.7 1.9 1.2
v 0.7 1.9 1
v 0.7 1.9 0.8
v 0.7 1.9 0.6
v -0.5 1.5 1.2
v -0.5 1.8 1.2
v -0.5 1.9 1.2
v -0.4 1.8 1.2
v -0.4 1.9 1.2
v -0.2 1.8 1.2
v -0.2 1.9 1.2
v 0 1.5 1.2
v 0 1.6 1.2
v 0 1.8 1.2
v 0 1.9 1.2
v 0.2 1.5 1.2
v 0.2 1.6 1.2
v 0.2 1.8 1.2
v 0.2 1.9 1.2
v 0.4 1.8 1.2
v 0.4 1.9 1.2
v 0.6 1.8 1.2
v 0.6 1.9 1.2
v 0.7 1.5 1.2
v 0.7 1.8 1.2
v 0.7 1.9 1.2
v -0.1 1.8 1
v -0.1 1.9 1
v 0.3 1.8 1
v 0.3 1.9 1
v -0.5 1.8 0.8
v -0.5 1.9 0.8
v -0.4 1.8 0.8
v -0.4 1.9 0.8
v 0.6 1.8 0.8
v 0.6 1.9 0.8
v 0.7 1.8 0.8
v 0.7 1.9 0.8
v -0.2 1.8 1.1
v -0.2 1.9 1.1
v 0 1.8 1.1
v 0 1.9 1.1
v 0.2 1.8 1.1
v 0.2 1.9 1.1
v 0.4 1.8 1.1
v 0.4 1.9 1.1
v -0.5 1.8 1
v -0.5 1.9 1
v -0.4 1.8 1
v -0.4 1.9 1
v 0.6 1.8 1
v 0.6 1.9 1
v 0.7 1.8 1
v 0.7 1.9 1
v -0.5 1.8 0.6
v -0.5 1.9 0.6
v -0.4 1.8 0.6
v -0.4 1.9 0.6
v 0.6 1.8 0.6
v 0.6 1.9 0.6
v 0.7 1.8 0.6
v 0.7 1.9 0.6
v -0.5 1.5 0.4
v -0.5 1.8 0.4
v -0.4 1.7 0.4
v -0.4 1.8 0.4
v -0.1 1.7 0.4
v -0.1 1.8 0.4
v -0.1 1.9 0.4
v 0.3 1.7 0.4
v 0.3 1.8 0.4
v 0.3 1.9 0.4
v 0.6 1.7 0.4
v 0.6 1.8 0.4
v 0.7 1.5 0.4
v 0.7 1.8 0.4
v -0.5 1.5 1.2
v 0 1.5 1.2
v 0.2 1.5 1.2
v 0.7 1.5 1.2
v -0.1 1.5 0.7
v 0 1.5 0.7
v 0.2 1.5 0.7
v 0.3 1.5 0.7
v -0.1 1.5 0.5
v 0.3 1.5 0.5
v -0.5 1.5 0.4
v 0.7 1.5 0.4
v -0.4 1.8 1.2
v -0.2 1.8 1.2
v 0 1.8 1.2
v 0.2 1.8 1.2
v 0.4 1.8 1.2
v 0.6 1.8 1.2
v -0.4 1.8 1.1
v -0.2 1.8 1.1
v 0 1.8 1.1
v 0.2 1.8 1.1
v 0.4 1.8 1.1
v 0.6 1.8 1.1
v -0.5 1.8 1
v -0.4 1.8 1
v -0.1 1.8 1
v 0.3 1.8 1
v 0.6 1.8 1
v 0.7 1.8 1
v -0.5 1.8 0.8
v -0.4 1.8 0.8
v 0.6 1.8 0.8
v 0.7 1.8 0.8
v -0.5 1.8 0.6
v -0.4 1.8 0.6
v 0.6 1.8 0.6
v 0.7 1.8 0.6
v -0.5 1.8 0.4
v -0.4 1.8 0.4
v -0.1 1.8 0.4
v 0.3 1.8 0.4
v 0.6 1.8 0.4
v 0.7 1.8 0.4
v -0.5 1.9 1.2
v -0.4 1.9 1.2
v -0.2 1.9 1.2
v 0 1.9 1.2
v 0.2 1.9 1.2
v 0.4 1.9 1.2
v 0.6 1.9 1.2
v 0.7 1.9 1.2
v -0.2 1.9 1.1
v 0 1.9 1.1
v 0.2 1.9 1.1
v 0.4 1.9 1.1
v -0.5 1.9 1
v -0.4 1.9 1
v -0.1 1.9 1
v 0.3 1.9 1
v 0.6 1.9 1
v 0.7 1.9 1
v -0.5 1.9 0.8
v -0.4 1.9 0.8
v 0.6 1.9 0.8
v 0.7 1.9 0.8
v -0.5 1.9 0.6
v -0.4 1.9 0.6
v 0.6 1.9 0.6
v 0.7 1.9 0.6
v -0.1 1.9 0.4
v 0.3 1.9 0.4

# faces
f 3/2/1 2/2/1 1/2/1
f 4/2/1 2/2/1 3/2/1
f 5/2/1 2/2/1 4/2/1
f 6/2/1 2/2/1 5/2/1
f 7/2/1 2/2/1 6/2/1
f 8/4/1 4/4/1 3/4/1
f 9/4/1 4/4/1 8/4/1
f 10/4/1 6/4/1 5/4/1
f 11/4/1 6/4/1 10/4/1
f 14/4/1 13/4/1 12/4/1
f 15/4/1 13/4/1 14/4/1
f 18/3/1 17/3/1 16/3/1
f 19/3/1 17/3/1 18/3/1
f 22/4/1 21/4/1 20/4/1
f 23/4/1 21/4/1 22/4/1
f 29/4/1 25/4/1 24/4/1
f 29/4/1 26/4/1 25/4/1
f 30/4/1 26/4/1 29/4/1
f 31/4/1 28/4/1 27/4/1
f 32/4/1 28/4/1 31/4/1
f 33/4/2 34/4/2 38/4/2
f 34/4/2 35/4/2 38/4/2
f 38/4/2 35/4/2 39/4/2
f 36/4/2 37/4/2 40/4/2
f 40/4/2 37/4/2 41/4/2
f 42/4/2 43/4/2 44/4/2
f 44/4/2 43/4/2 45/4/2
f 46/3/2 47/3/2 48/3/2
f 48/3/2 47/3/2 49/3/2
f 50/4/2 51/4/2 52/4/2
f 52/4/2 51/4/2 53/4/2
f 54/2/2 55/2/2 56/2/2
f 56/2/2 55/2/2 57/2/2
f 57/2/2 55/2/2 58/2/2
f 58/2/2 55/2/2 59/2/2
f 59/2/2 55/2/2 60/2/2
f 56/4/2 57/4/2 61/4/2
f 61/4/2 57/4/2 62/4/2
f 58/4/2 59/4/2 63/4/2
f 63/4/2 59/4/2 64/4/2
f 68/2/3 66/2/3 65/2/3
f 68/4/3 67/4/3 66/4/3
f 69/4/3 67/4/3 68/4/3
f 70/2/3 68/2/3 65/2/3
f 72/2/3 70/2/3 65/2/3
f 73/2/3 70/2/3 72/2/3
f 74/4/3 71/4/3 70/4/3
f 74/2/3 70/2/3 73/2/3
f 75/4/3 71/4/3 74/4/3
f 76/1/3 73/1/3 72/1/3
f 77/2/3 74/2/3 73/2/3
f 77/1/3 73/1/3 76/1/3
f 78/2/3 74/2/3 77/2/3
f 80/2/3 77/2/3 76/2/3
f 80/4/3 79/4/3 78/4/3
f 80/2/3 78/2/3 77/2/3
f 81/4/3 79/4/3 80/4/3
f 82/2/3 80/2/3 76/2/3
f 84/2/3 82/2/3 76/2/3
f 85/4/3 83/4/3 82/4/3
f 85/2/3 82/2/3 84/2/3
f 86/4/3 83/4/3 85/4/3
f 89/3/3 88/3/3 87/3/3
f 90/3/3 88/3/3 89/3/3
f 93/4/3 92/4/3 91/4/3
f 94/4/3 92/4/3 93/4/3
f 97/4/3 96/4/3 95/4/3
f 98/4/3 96/4/3 97/4/3
f 99/4/4 100/4/4 101/4/4
f 101/4/4 100/4/4 102/4/4
f 103/4/4 104/4/4 105/4/4
f 105/4/4 104/4/4 106/4/4
f 107/4/4 108/4/4 109/4/4
f 109/4/4 108/4/4 110/4/4
f 111/4/4 112/4/4 113/4/4
f 113/4/4 112/4/4 114/4/4
f 115/4/4 116/4/4 117/4/4
f 117/4/4 116/4/4 118/4/4
f 119/4/4 120/4/4 121/4/4
f 121/4/4 120/4/4 122/4/4
f 123/2/4 124/2/4 125/2/4
f 125/2/4 124/2/4 126/2/4
f 123/2/4 125/2/4 127/2/4
f 125/1/4 126/1/4 127/1/4
f 127/1/4 126/1/4 128/1/4
f 127/2/4 128/2/4 130/2/4
f 123/2/4 127/2/4 130/2/4
f 128/3/4 129/3/4 131/3/4
f 130/2/4 128/2/4 131/2/4
f 131/3/4 129/3/4 132/3/4
f 123/2/4 130/2/4 133/2/4
f 130/1/4 131/1/4 133/1/4
f 133/1/4 131/1/4 134/1/4
f 123/2/4 133/2/4 135/2/4
f 133/2/4 134/2/4 135/2/4
f 135/2/4 134/2/4 136/2/4
f 141/2/5 138/2/5 137/2/5
f 142/1/5 139/1/5 138/1/5
f 142/2/5 138/2/5 141/2/5
f 143/2/5 140/2/5 139/2/5
f 143/1/5 139/1/5 142/1/5
f 144/2/5 140/2/5 143/2/5
f 145/1/5 142/1/5 141/1/5
f 145/2/5 141/2/5 137/2/5
f 145/1/5 144/1/5 143/1/5
f 145/1/5 143/1/5 142/1/5
f 146/2/5 140/2/5 144/2/5
f 146/1/5 144/1/5 145/1/5
f 147/2/5 145/2/5 137/2/5
f 147/2/5 146/2/5 145/2/5
f 148/2/5 140/2/5 146/2/5
f 148/2/5 146/2/5 147/2/5
f 149/2/6 150/2/6 155/2/6
f 155/2/6 150/2/6 156/2/6
f 151/2/6 152/2/6 157/2/6
f 157/2/6 152/2/6 158/2/6
f 153/2/6 154/2/6 159/2/6
f 159/2/6 154/2/6 160/2/6
f 157/1/6 158/1/6 162/1/6
f 155/1/6 156/1/6 162/1/6
f 159/1/6 160/1/6 162/1/6
f 158/1/6 159/1/6 162/1/6
f 156/1/6 157/1/6 162/1/6
f 162/1/6 160/1/6 163/1/6
f 163/1/6 160/1/6 164/1/6
f 164/1/6 160/1/6 165/1/6
f 161/2/6 162/2/6 167/2/6
f 162/1/6 163/1/6 168/1/6
f 167/2/6 162/2/6 168/2/6
f 164/1/6 165/1/6 169/1/6
f 165/2/6 166/2/6 169/2/6
f 169/2/6 166/2/6 170/2/6
f 168/1/6 163/1/6 172/1/6
f 164/1/6 169/1/6 173/1/6
f 171/2/6 172/2/6 175/2/6
f 172/1/6 163/1/6 176/1/6
f 175/2/6 172/2/6 176/2/6
f 176/1/6 163/1/6 177/1/6
f 164/1/6 173/1/6 178/1/6
f 173/2/6 174/2/6 179/2/6
f 178/1/6 173/1/6 179/1/6
f 179/2/6 174/2/6 180/2/6
f 183/4/6 184/4/6 189/4/6
f 189/4/6 184/4/6 190/4/6
f 185/4/6 186/4/6 191/4/6
f 191/4/6 186/4/6 192/4/6
f 181/4/6 182/4/6 193/4/6
f 193/4/6 182/4/6 194/4/6
f 187/4/6 188/4/6 197/4/6
f 197/4/6 188/4/6 198/4/6
f 199/4/6 200/4/6 203/4/6
f 203/4/6 200/4/6 204/4/6
f 201/4/6 202/4/6 205/4/6
f 205/4/6 202/4/6 206/4/6
f 195/3/6 196/3/6 207/3/6
f 207/3/6 196/3/6 208/3/6
