# MagicaVoxel @ Ephtracy

# group
o 

# material
mtllib cars-4.mtl
usemtl palette

# normals
vn 0 0 1
vn 0 0 -1
vn 1 0 0
vn -1 0 0
vn 0 -1 0
vn 0 1 0

# texcoords
vt 0.0136719 0.5
vt 0.0214844 0.5
vt 0.0332031 0.5
vt 0.0488281 0.5
vt 0.0683594 0.5
vt 0.0722656 0.5
vt 0.986328 0.5
vt 0.990234 0.5

# verts
v -2.2 0.3 2.2
v -2.5 0.3 2.2
v -3.2 0.3 2.2
v -3.5 0.3 2.2
v -2 0.4 2.2
v -2.2 0.4 2.2
v -2.5 0.4 2.2
v -3.2 0.4 2.2
v -3.5 0.4 2.2
v -3.7 0.4 2.2
v -2 0.5 2.2
v -2.1 0.5 2.2
v -2.2 0.5 2.2
v -2.5 0.5 2.2
v -3.2 0.5 2.2
v -3.5 0.5 2.2
v -3.6 0.5 2.2
v -3.7 0.5 2.2
v -2 0.6 2.2
v -2.1 0.6 2.2
v -3.6 0.6 2.2
v -3.7 0.6 2.2
v -2 0.7 2.2
v -2.4 0.7 2.2
v -2.5 0.7 2.2
v -2.7 0.7 2.2
v -2.8 0.7 2.2
v -3.1 0.7 2.2
v -3.2 0.7 2.2
v -3.7 0.7 2.2
v -2.5 0.8 2.2
v -2.7 0.8 2.2
v -2.8 0.8 2.2
v -3.1 0.8 2.2
v -2.4 0.9 2.2
v -3.2 0.9 2.2
v -2.2 0.3 1.6
v -2.5 0.3 1.6
v -3.2 0.3 1.6
v -3.5 0.3 1.6
v -2.2 0.4 1.6
v -2.5 0.4 1.6
v -3.2 0.4 1.6
v -3.5 0.4 1.6
v -2.6 0.5 1.6
v -3 0.5 1.6
v -2.6 0.6 1.6
v -3 0.6 1.6
v -2.2 0.3 2.1
v -2.5 0.3 2.1
v -3.2 0.3 2.1
v -3.5 0.3 2.1
v -2.2 0.4 2.1
v -2.5 0.4 2.1
v -3.2 0.4 2.1
v -3.5 0.4 2.1
v -2.6 0.5 2
v -3 0.5 2
v -2.6 0.6 2
v -3 0.6 2
v -2.2 0.3 1.5
v -2.5 0.3 1.5
v -3.2 0.3 1.5
v -3.5 0.3 1.5
v -2 0.4 1.5
v -2.1 0.4 1.5
v -2.2 0.4 1.5
v -2.5 0.4 1.5
v -3.2 0.4 1.5
v -3.5 0.4 1.5
v -3.7 0.4 1.5
v -2 0.5 1.5
v -2.1 0.5 1.5
v -2.2 0.5 1.5
v -2.5 0.5 1.5
v -3.2 0.5 1.5
v -3.5 0.5 1.5
v -3.6 0.5 1.5
v -3.7 0.5 1.5
v -2 0.6 1.5
v -2.1 0.6 1.5
v -3.6 0.6 1.5
v -3.7 0.6 1.5
v -2 0.7 1.5
v -2.4 0.7 1.5
v -2.5 0.7 1.5
v -2.6 0.7 1.5
v -2.7 0.7 1.5
v -2.8 0.7 1.5
v -3.1 0.7 1.5
v -3.2 0.7 1.5
v -3.7 0.7 1.5
v -2.5 0.8 1.5
v -2.6 0.8 1.5
v -2.7 0.8 1.5
v -2.8 0.8 1.5
v -3.1 0.8 1.5
v -2.4 0.9 1.5
v -3.2 0.9 1.5
v -2 0.4 2.2
v -2 0.5 2.2
v -2 0.6 2.2
v -2 0.7 2.2
v -2 0.5 2
v -2 0.6 2
v -2 0.5 1.7
v -2 0.6 1.7
v -2 0.4 1.5
v -2 0.5 1.5
v -2 0.6 1.5
v -2 0.7 1.5
v -2.2 0.3 2.2
v -2.2 0.4 2.2
v -2.2 0.3 2.1
v -2.2 0.4 2.1
v -2.2 0.3 1.6
v -2.2 0.4 1.6
v -2.2 0.3 1.5
v -2.2 0.4 1.5
v -2.4 0.7 2.2
v -2.4 0.9 2.2
v -2.4 0.7 2.1
v -2.4 0.8 2.1
v -2.4 0.7 1.6
v -2.4 0.8 1.6
v -2.4 0.7 1.5
v -2.4 0.9 1.5
v -3 0.5 2
v -3 0.6 2
v -3 0.5 1.6
v -3 0.6 1.6
v -3.2 0.3 2.2
v -3.2 0.4 2.2
v -3.2 0.3 2.1
v -3.2 0.4 2.1
v -3.2 0.3 1.6
v -3.2 0.4 1.6
v -3.2 0.3 1.5
v -3.2 0.4 1.5
v -2.5 0.3 2.2
v -2.5 0.4 2.2
v -2.5 0.3 2.1
v -2.5 0.4 2.1
v -2.5 0.3 1.6
v -2.5 0.4 1.6
v -2.5 0.3 1.5
v -2.5 0.4 1.5
v -2.6 0.5 2
v -2.6 0.6 2
v -2.6 0.5 1.6
v -2.6 0.6 1.6
v -3.2 0.7 2.2
v -3.2 0.9 2.2
v -3.2 0.7 2.1
v -3.2 0.8 2.1
v -3.2 0.7 1.6
v -3.2 0.8 1.6
v -3.2 0.7 1.5
v -3.2 0.9 1.5
v -3.5 0.3 2.2
v -3.5 0.4 2.2
v -3.5 0.3 2.1
v -3.5 0.4 2.1
v -3.5 0.3 1.6
v -3.5 0.4 1.6
v -3.5 0.3 1.5
v -3.5 0.4 1.5
v -3.7 0.4 2.2
v -3.7 0.5 2.2
v -3.7 0.6 2.2
v -3.7 0.7 2.2
v -3.7 0.4 2.1
v -3.7 0.5 2.1
v -3.7 0.5 2
v -3.7 0.6 2
v -3.7 0.5 1.7
v -3.7 0.6 1.7
v -3.7 0.4 1.6
v -3.7 0.5 1.6
v -3.7 0.4 1.5
v -3.7 0.5 1.5
v -3.7 0.6 1.5
v -3.7 0.7 1.5
v -2.2 0.3 2.2
v -2.2 0.3 2.1
v -2.2 0.3 1.6
v -2.2 0.3 1.5
v -2.5 0.3 2.2
v -2.5 0.3 2.1
v -2.5 0.3 1.6
v -2.5 0.3 1.5
v -3.2 0.3 2.2
v -3.2 0.3 2.1
v -3.2 0.3 1.6
v -3.2 0.3 1.5
v -3.5 0.3 2.2
v -3.5 0.3 2.1
v -3.5 0.3 1.6
v -3.5 0.3 1.5
v -2 0.4 2.2
v -2 0.4 1.5
v -2.1 0.4 2.1
v -2.1 0.4 1.6
v -2.1 0.4 1.5
v -2.2 0.4 2.2
v -2.2 0.4 2.1
v -2.2 0.4 1.6
v -2.2 0.4 1.5
v -2.5 0.4 2.2
v -2.5 0.4 2.1
v -2.5 0.4 1.6
v -2.5 0.4 1.5
v -3.2 0.4 2.2
v -3.2 0.4 2.1
v -3.2 0.4 1.6
v -3.2 0.4 1.5
v -3.5 0.4 2.2
v -3.5 0.4 2.1
v -3.5 0.4 1.6
v -3.5 0.4 1.5
v -3.6 0.4 2.1
v -3.6 0.4 1.6
v -3.7 0.4 2.2
v -3.7 0.4 2.1
v -3.7 0.4 1.6
v -3.7 0.4 1.5
v -2.6 0.6 2
v -2.6 0.6 1.6
v -3 0.6 2
v -3 0.6 1.6
v -2.6 0.5 2
v -2.6 0.5 1.6
v -3 0.5 2
v -3 0.5 1.6
v -2 0.7 2.2
v -2 0.7 1.5
v -2.4 0.7 2.2
v -2.4 0.7 2.1
v -2.4 0.7 1.6
v -2.4 0.7 1.5
v -3.2 0.7 2.2
v -3.2 0.7 2.1
v -3.2 0.7 1.6
v -3.2 0.7 1.5
v -3.7 0.7 2.2
v -3.7 0.7 1.5
v -2.4 0.9 2.2
v -2.4 0.9 1.5
v -3.2 0.9 2.2
v -3.2 0.9 1.5

# faces
f 6/7/1 2/7/1 1/7/1
f 7/7/1 2/7/1 6/7/1
f 8/7/1 4/7/1 3/7/1
f 9/7/1 4/7/1 8/7/1
f 11/4/1 6/4/1 5/4/1
f 12/4/1 6/4/1 11/4/1
f 13/7/1 7/7/1 6/7/1
f 13/4/1 6/4/1 12/4/1
f 14/1/1 8/1/1 7/1/1
f 14/7/1 7/7/1 13/7/1
f 15/7/1 9/7/1 8/7/1
f 15/1/1 8/1/1 14/1/1
f 16/5/1 10/5/1 9/5/1
f 16/7/1 9/7/1 15/7/1
f 17/5/1 10/5/1 16/5/1
f 18/5/1 10/5/1 17/5/1
f 19/2/1 12/2/1 11/2/1
f 20/1/1 15/1/1 14/1/1
f 20/2/1 12/2/1 19/2/1
f 20/1/1 13/1/1 12/1/1
f 20/1/1 14/1/1 13/1/1
f 20/1/1 17/1/1 16/1/1
f 20/1/1 16/1/1 15/1/1
f 21/3/1 18/3/1 17/3/1
f 21/1/1 17/1/1 20/1/1
f 22/3/1 18/3/1 21/3/1
f 23/1/1 20/1/1 19/1/1
f 23/1/1 21/1/1 20/1/1
f 23/1/1 22/1/1 21/1/1
f 24/1/1 22/1/1 23/1/1
f 25/1/1 22/1/1 24/1/1
f 26/1/1 22/1/1 25/1/1
f 27/1/1 22/1/1 26/1/1
f 28/1/1 22/1/1 27/1/1
f 29/1/1 22/1/1 28/1/1
f 30/1/1 22/1/1 29/1/1
f 31/1/1 25/1/1 24/1/1
f 31/8/1 26/8/1 25/8/1
f 32/1/1 27/1/1 26/1/1
f 32/8/1 26/8/1 31/8/1
f 33/8/1 28/8/1 27/8/1
f 33/1/1 27/1/1 32/1/1
f 34/1/1 29/1/1 28/1/1
f 34/8/1 28/8/1 33/8/1
f 35/1/1 33/1/1 32/1/1
f 35/1/1 32/1/1 31/1/1
f 35/1/1 34/1/1 33/1/1
f 35/1/1 31/1/1 24/1/1
f 36/1/1 29/1/1 34/1/1
f 36/1/1 34/1/1 35/1/1
f 41/7/1 38/7/1 37/7/1
f 42/7/1 38/7/1 41/7/1
f 43/7/1 40/7/1 39/7/1
f 44/7/1 40/7/1 43/7/1
f 47/1/1 46/1/1 45/1/1
f 48/1/1 46/1/1 47/1/1
f 49/7/2 50/7/2 53/7/2
f 53/7/2 50/7/2 54/7/2
f 51/7/2 52/7/2 55/7/2
f 55/7/2 52/7/2 56/7/2
f 57/1/2 58/1/2 59/1/2
f 59/1/2 58/1/2 60/1/2
f 61/7/2 62/7/2 67/7/2
f 67/7/2 62/7/2 68/7/2
f 63/7/2 64/7/2 69/7/2
f 69/7/2 64/7/2 70/7/2
f 65/4/2 66/4/2 72/4/2
f 66/5/2 67/5/2 73/5/2
f 72/4/2 66/4/2 73/4/2
f 67/6/2 68/6/2 74/6/2
f 73/5/2 67/5/2 74/5/2
f 68/1/2 69/1/2 75/1/2
f 74/6/2 68/6/2 75/6/2
f 69/6/2 70/6/2 76/6/2
f 75/1/2 69/1/2 76/1/2
f 70/5/2 71/5/2 77/5/2
f 76/6/2 70/6/2 77/6/2
f 77/5/2 71/5/2 78/5/2
f 78/5/2 71/5/2 79/5/2
f 72/2/2 73/2/2 80/2/2
f 75/1/2 76/1/2 81/1/2
f 80/2/2 73/2/2 81/2/2
f 73/1/2 74/1/2 81/1/2
f 74/1/2 75/1/2 81/1/2
f 77/1/2 78/1/2 81/1/2
f 76/1/2 77/1/2 81/1/2
f 78/3/2 79/3/2 82/3/2
f 81/1/2 78/1/2 82/1/2
f 82/3/2 79/3/2 83/3/2
f 80/1/2 81/1/2 84/1/2
f 81/1/2 82/1/2 84/1/2
f 82/1/2 83/1/2 84/1/2
f 84/1/2 83/1/2 85/1/2
f 85/1/2 83/1/2 86/1/2
f 86/1/2 83/1/2 87/1/2
f 87/1/2 83/1/2 88/1/2
f 88/1/2 83/1/2 89/1/2
f 89/1/2 83/1/2 90/1/2
f 90/1/2 83/1/2 91/1/2
f 91/1/2 83/1/2 92/1/2
f 85/1/2 86/1/2 93/1/2
f 86/8/2 87/8/2 93/8/2
f 87/6/2 88/6/2 94/6/2
f 93/8/2 87/8/2 94/8/2
f 88/1/2 89/1/2 95/1/2
f 94/6/2 88/6/2 95/6/2
f 89/6/2 90/6/2 96/6/2
f 95/1/2 89/1/2 96/1/2
f 90/1/2 91/1/2 97/1/2
f 96/6/2 90/6/2 97/6/2
f 95/1/2 96/1/2 98/1/2
f 94/1/2 95/1/2 98/1/2
f 96/1/2 97/1/2 98/1/2
f 93/1/2 94/1/2 98/1/2
f 85/1/2 93/1/2 98/1/2
f 97/1/2 91/1/2 99/1/2
f 98/1/2 97/1/2 99/1/2
f 104/4/3 101/4/3 100/4/3
f 104/2/3 102/2/3 101/2/3
f 105/1/3 103/1/3 102/1/3
f 105/2/3 102/2/3 104/2/3
f 106/4/3 104/4/3 100/4/3
f 106/1/3 105/1/3 104/1/3
f 107/1/3 103/1/3 105/1/3
f 107/1/3 105/1/3 106/1/3
f 108/4/3 106/4/3 100/4/3
f 109/2/3 107/2/3 106/2/3
f 109/4/3 106/4/3 108/4/3
f 110/1/3 103/1/3 107/1/3
f 110/2/3 107/2/3 109/2/3
f 111/1/3 103/1/3 110/1/3
f 114/7/3 113/7/3 112/7/3
f 115/7/3 113/7/3 114/7/3
f 118/7/3 117/7/3 116/7/3
f 119/7/3 117/7/3 118/7/3
f 122/1/3 121/1/3 120/1/3
f 123/1/3 121/1/3 122/1/3
f 124/8/3 123/8/3 122/8/3
f 125/1/3 121/1/3 123/1/3
f 125/8/3 123/8/3 124/8/3
f 126/1/3 125/1/3 124/1/3
f 127/1/3 121/1/3 125/1/3
f 127/1/3 125/1/3 126/1/3
f 130/1/3 129/1/3 128/1/3
f 131/1/3 129/1/3 130/1/3
f 134/7/3 133/7/3 132/7/3
f 135/7/3 133/7/3 134/7/3
f 138/7/3 137/7/3 136/7/3
f 139/7/3 137/7/3 138/7/3
f 140/7/4 141/7/4 142/7/4
f 142/7/4 141/7/4 143/7/4
f 144/7/4 145/7/4 146/7/4
f 146/7/4 145/7/4 147/7/4
f 148/1/4 149/1/4 150/1/4
f 150/1/4 149/1/4 151/1/4
f 152/1/4 153/1/4 154/1/4
f 154/1/4 153/1/4 155/1/4
f 154/8/4 155/8/4 156/8/4
f 155/1/4 153/1/4 157/1/4
f 156/8/4 155/8/4 157/8/4
f 156/1/4 157/1/4 158/1/4
f 157/1/4 153/1/4 159/1/4
f 158/1/4 157/1/4 159/1/4
f 160/7/4 161/7/4 162/7/4
f 162/7/4 161/7/4 163/7/4
f 164/7/4 165/7/4 166/7/4
f 166/7/4 165/7/4 167/7/4
f 168/5/4 169/5/4 172/5/4
f 169/3/4 170/3/4 173/3/4
f 172/5/4 169/5/4 173/5/4
f 172/4/4 173/4/4 174/4/4
f 173/3/4 170/3/4 174/3/4
f 170/1/4 171/1/4 175/1/4
f 174/3/4 170/3/4 175/3/4
f 172/4/4 174/4/4 176/4/4
f 174/1/4 175/1/4 176/1/4
f 175/1/4 171/1/4 177/1/4
f 176/1/4 175/1/4 177/1/4
f 172/4/4 176/4/4 178/4/4
f 176/3/4 177/3/4 179/3/4
f 178/4/4 176/4/4 179/4/4
f 178/5/4 179/5/4 180/5/4
f 179/3/4 177/3/4 181/3/4
f 180/5/4 179/5/4 181/5/4
f 177/1/4 171/1/4 182/1/4
f 181/3/4 177/3/4 182/3/4
f 182/1/4 171/1/4 183/1/4
f 188/7/5 185/7/5 184/7/5
f 189/7/5 185/7/5 188/7/5
f 190/7/5 187/7/5 186/7/5
f 191/7/5 187/7/5 190/7/5
f 196/7/5 193/7/5 192/7/5
f 197/7/5 193/7/5 196/7/5
f 198/7/5 195/7/5 194/7/5
f 199/7/5 195/7/5 198/7/5
f 202/4/5 201/4/5 200/4/5
f 203/4/5 201/4/5 202/4/5
f 204/4/5 201/4/5 203/4/5
f 205/4/5 202/4/5 200/4/5
f 206/1/5 203/1/5 202/1/5
f 206/4/5 202/4/5 205/4/5
f 207/5/5 204/5/5 203/5/5
f 207/1/5 203/1/5 206/1/5
f 208/5/5 204/5/5 207/5/5
f 210/1/5 207/1/5 206/1/5
f 211/1/5 207/1/5 210/1/5
f 213/1/5 210/1/5 209/1/5
f 213/1/5 212/1/5 211/1/5
f 213/1/5 211/1/5 210/1/5
f 214/1/5 212/1/5 213/1/5
f 215/1/5 212/1/5 214/1/5
f 216/1/5 212/1/5 215/1/5
f 218/1/5 215/1/5 214/1/5
f 219/1/5 215/1/5 218/1/5
f 221/5/5 218/5/5 217/5/5
f 221/1/5 219/1/5 218/1/5
f 222/5/5 220/5/5 219/5/5
f 222/1/5 219/1/5 221/1/5
f 223/5/5 221/5/5 217/5/5
f 224/4/5 222/4/5 221/4/5
f 224/5/5 221/5/5 223/5/5
f 225/5/5 220/5/5 222/5/5
f 225/4/5 222/4/5 224/4/5
f 226/5/5 220/5/5 225/5/5
f 229/1/5 228/1/5 227/1/5
f 230/1/5 228/1/5 229/1/5
f 231/1/6 232/1/6 233/1/6
f 233/1/6 232/1/6 234/1/6
f 235/1/6 236/1/6 237/1/6
f 237/1/6 236/1/6 238/1/6
f 238/1/6 236/1/6 239/1/6
f 239/1/6 236/1/6 240/1/6
f 241/1/6 242/1/6 245/1/6
f 243/1/6 244/1/6 245/1/6
f 242/1/6 243/1/6 245/1/6
f 245/1/6 244/1/6 246/1/6
f 247/1/6 248/1/6 249/1/6
f 249/1/6 248/1/6 250/1/6
