# MagicaVoxel @ Ephtracy

# group
o 

# material
mtllib cars-6.mtl
usemtl palette

# normals
vn 0 0 1
vn 0 0 -1
vn 1 0 0
vn -1 0 0
vn 0 -1 0
vn 0 1 0

# texcoords
vt 0.0175781 0.5
vt 0.0214844 0.5
vt 0.0253906 0.5
vt 0.0332031 0.5
vt 0.0488281 0.5
vt 0.0644531 0.5
vt 0.0683594 0.5
vt 0.0722656 0.5
vt 0.986328 0.5
vt 0.990234 0.5

# verts
v -2.2 0.3 -0.3
v -2.5 0.3 -0.3
v -3.2 0.3 -0.3
v -3.5 0.3 -0.3
v -2 0.4 -0.3
v -2.2 0.4 -0.3
v -2.5 0.4 -0.3
v -3.2 0.4 -0.3
v -3.5 0.4 -0.3
v -3.7 0.4 -0.3
v -2 0.5 -0.3
v -2.1 0.5 -0.3
v -2.2 0.5 -0.3
v -2.5 0.5 -0.3
v -2.8 0.5 -0.3
v -3 0.5 -0.3
v -3.2 0.5 -0.3
v -3.5 0.5 -0.3
v -3.6 0.5 -0.3
v -3.7 0.5 -0.3
v -2 0.6 -0.3
v -2.1 0.6 -0.3
v -3.6 0.6 -0.3
v -3.7 0.6 -0.3
v -2 0.7 -0.3
v -2.4 0.7 -0.3
v -2.5 0.7 -0.3
v -2.7 0.7 -0.3
v -2.8 0.7 -0.3
v -3 0.7 -0.3
v -3.1 0.7 -0.3
v -3.2 0.7 -0.3
v -3.7 0.7 -0.3
v -2.5 0.8 -0.3
v -2.7 0.8 -0.3
v -2.8 0.8 -0.3
v -3.1 0.8 -0.3
v -2.4 0.9 -0.3
v -2.7 0.9 -0.3
v -2.9 0.9 -0.3
v -3.2 0.9 -0.3
v -2.7 1 -0.3
v -2.9 1 -0.3
v -2.2 0.3 -0.9
v -2.5 0.3 -0.9
v -3.2 0.3 -0.9
v -3.5 0.3 -0.9
v -2.2 0.4 -0.9
v -2.5 0.4 -0.9
v -3.2 0.4 -0.9
v -3.5 0.4 -0.9
v -2.6 0.5 -0.9
v -2.8 0.5 -0.9
v -3 0.5 -0.9
v -2.6 0.6 -0.9
v -2.8 0.6 -0.9
v -3 0.6 -0.9
v -2.2 0.3 -0.4
v -2.5 0.3 -0.4
v -3.2 0.3 -0.4
v -3.5 0.3 -0.4
v -2.2 0.4 -0.4
v -2.5 0.4 -0.4
v -3.2 0.4 -0.4
v -3.5 0.4 -0.4
v -2.6 0.5 -0.5
v -3 0.5 -0.5
v -2.6 0.6 -0.5
v -3 0.6 -0.5
v -2.2 0.3 -1
v -2.5 0.3 -1
v -3.2 0.3 -1
v -3.5 0.3 -1
v -2 0.4 -1
v -2.1 0.4 -1
v -2.2 0.4 -1
v -2.5 0.4 -1
v -3.2 0.4 -1
v -3.5 0.4 -1
v -3.7 0.4 -1
v -2 0.5 -1
v -2.1 0.5 -1
v -2.2 0.5 -1
v -2.5 0.5 -1
v -2.8 0.5 -1
v -3 0.5 -1
v -3.2 0.5 -1
v -3.5 0.5 -1
v -3.6 0.5 -1
v -3.7 0.5 -1
v -2 0.6 -1
v -2.1 0.6 -1
v -3.6 0.6 -1
v -3.7 0.6 -1
v -2 0.7 -1
v -2.4 0.7 -1
v -2.5 0.7 -1
v -2.6 0.7 -1
v -2.7 0.7 -1
v -2.8 0.7 -1
v -3 0.7 -1
v -3.1 0.7 -1
v -3.2 0.7 -1
v -3.7 0.7 -1
v -2.5 0.8 -1
v -2.6 0.8 -1
v -2.7 0.8 -1
v -2.8 0.8 -1
v -3.1 0.8 -1
v -2.4 0.9 -1
v -2.7 0.9 -1
v -2.9 0.9 -1
v -3.2 0.9 -1
v -2.7 1 -1
v -2.9 1 -1
v -2 0.4 -0.3
v -2 0.5 -0.3
v -2 0.6 -0.3
v -2 0.7 -0.3
v -2 0.5 -0.5
v -2 0.6 -0.5
v -2 0.5 -0.8
v -2 0.6 -0.8
v -2 0.4 -1
v -2 0.5 -1
v -2 0.6 -1
v -2 0.7 -1
v -2.2 0.3 -0.3
v -2.2 0.4 -0.3
v -2.2 0.3 -0.4
v -2.2 0.4 -0.4
v -2.2 0.3 -0.9
v -2.2 0.4 -0.9
v -2.2 0.3 -1
v -2.2 0.4 -1
v -2.4 0.7 -0.3
v -2.4 0.9 -0.3
v -2.4 0.7 -0.4
v -2.4 0.8 -0.4
v -2.4 0.7 -0.9
v -2.4 0.8 -0.9
v -2.4 0.7 -1
v -2.4 0.9 -1
v -2.7 0.9 -0.3
v -2.7 1 -0.3
v -2.7 0.9 -0.6
v -2.7 1 -0.6
v -2.7 0.9 -0.8
v -2.7 1 -0.8
v -2.7 0.9 -1
v -2.7 1 -1
v -3 0.5 -0.5
v -3 0.6 -0.5
v -3 0.5 -0.9
v -3 0.6 -0.9
v -3.2 0.3 -0.3
v -3.2 0.4 -0.3
v -3.2 0.3 -0.4
v -3.2 0.4 -0.4
v -3.2 0.3 -0.9
v -3.2 0.4 -0.9
v -3.2 0.3 -1
v -3.2 0.4 -1
v -2.5 0.3 -0.3
v -2.5 0.4 -0.3
v -2.5 0.3 -0.4
v -2.5 0.4 -0.4
v -2.5 0.3 -0.9
v -2.5 0.4 -0.9
v -2.5 0.3 -1
v -2.5 0.4 -1
v -2.6 0.5 -0.5
v -2.6 0.6 -0.5
v -2.6 0.5 -0.6
v -2.6 0.6 -0.6
v -2.6 0.5 -0.8
v -2.6 0.6 -0.8
v -2.6 0.5 -0.9
v -2.6 0.6 -0.9
v -2.9 0.9 -0.3
v -2.9 1 -0.3
v -2.9 0.9 -0.6
v -2.9 1 -0.6
v -2.9 0.9 -0.8
v -2.9 1 -0.8
v -2.9 0.9 -1
v -2.9 1 -1
v -3.2 0.7 -0.3
v -3.2 0.9 -0.3
v -3.2 0.7 -0.4
v -3.2 0.8 -0.4
v -3.2 0.7 -0.9
v -3.2 0.8 -0.9
v -3.2 0.7 -1
v -3.2 0.9 -1
v -3.5 0.3 -0.3
v -3.5 0.4 -0.3
v -3.5 0.3 -0.4
v -3.5 0.4 -0.4
v -3.5 0.3 -0.9
v -3.5 0.4 -0.9
v -3.5 0.3 -1
v -3.5 0.4 -1
v -3.7 0.4 -0.3
v -3.7 0.5 -0.3
v -3.7 0.6 -0.3
v -3.7 0.7 -0.3
v -3.7 0.4 -0.4
v -3.7 0.5 -0.4
v -3.7 0.5 -0.5
v -3.7 0.6 -0.5
v -3.7 0.5 -0.8
v -3.7 0.6 -0.8
v -3.7 0.4 -0.9
v -3.7 0.5 -0.9
v -3.7 0.4 -1
v -3.7 0.5 -1
v -3.7 0.6 -1
v -3.7 0.7 -1
v -2.2 0.3 -0.3
v -2.2 0.3 -0.4
v -2.2 0.3 -0.9
v -2.2 0.3 -1
v -2.5 0.3 -0.3
v -2.5 0.3 -0.4
v -2.5 0.3 -0.9
v -2.5 0.3 -1
v -3.2 0.3 -0.3
v -3.2 0.3 -0.4
v -3.2 0.3 -0.9
v -3.2 0.3 -1
v -3.5 0.3 -0.3
v -3.5 0.3 -0.4
v -3.5 0.3 -0.9
v -3.5 0.3 -1
v -2 0.4 -0.3
v -2 0.4 -1
v -2.1 0.4 -0.4
v -2.1 0.4 -0.9
v -2.1 0.4 -1
v -2.2 0.4 -0.3
v -2.2 0.4 -0.4
v -2.2 0.4 -0.9
v -2.2 0.4 -1
v -2.5 0.4 -0.3
v -2.5 0.4 -0.4
v -2.5 0.4 -0.9
v -2.5 0.4 -1
v -3.2 0.4 -0.3
v -3.2 0.4 -0.4
v -3.2 0.4 -0.9
v -3.2 0.4 -1
v -3.5 0.4 -0.3
v -3.5 0.4 -0.4
v -3.5 0.4 -0.9
v -3.5 0.4 -1
v -3.6 0.4 -0.4
v -3.6 0.4 -0.9
v -3.7 0.4 -0.3
v -3.7 0.4 -0.4
v -3.7 0.4 -0.9
v -3.7 0.4 -1
v -2.6 0.6 -0.5
v -2.6 0.6 -0.6
v -2.6 0.6 -0.8
v -2.6 0.6 -0.9
v -2.8 0.6 -0.9
v -3 0.6 -0.5
v -3 0.6 -0.9
v -2.6 0.5 -0.5
v -2.6 0.5 -0.6
v -2.6 0.5 -0.8
v -2.6 0.5 -0.9
v -2.8 0.5 -0.9
v -3 0.5 -0.5
v -3 0.5 -0.9
v -2 0.7 -0.3
v -2 0.7 -1
v -2.4 0.7 -0.3
v -2.4 0.7 -0.4
v -2.4 0.7 -0.9
v -2.4 0.7 -1
v -3.2 0.7 -0.3
v -3.2 0.7 -0.4
v -3.2 0.7 -0.9
v -3.2 0.7 -1
v -3.7 0.7 -0.3
v -3.7 0.7 -1
v -2.4 0.9 -0.3
v -2.4 0.9 -1
v -2.7 0.9 -0.3
v -2.7 0.9 -0.6
v -2.7 0.9 -0.8
v -2.7 0.9 -1
v -2.9 0.9 -0.3
v -2.9 0.9 -0.6
v -2.9 0.9 -0.8
v -2.9 0.9 -1
v -3.2 0.9 -0.3
v -3.2 0.9 -1
v -2.7 1 -0.3
v -2.7 1 -0.6
v -2.7 1 -0.8
v -2.7 1 -1
v -2.9 1 -0.3
v -2.9 1 -0.6
v -2.9 1 -0.8
v -2.9 1 -1

# faces
f 6/9/1 2/9/1 1/9/1
f 7/9/1 2/9/1 6/9/1
f 8/9/1 4/9/1 3/9/1
f 9/9/1 4/9/1 8/9/1
f 11/5/1 6/5/1 5/5/1
f 12/5/1 6/5/1 11/5/1
f 13/9/1 7/9/1 6/9/1
f 13/5/1 6/5/1 12/5/1
f 14/3/1 8/3/1 7/3/1
f 14/9/1 7/9/1 13/9/1
f 15/3/1 8/3/1 14/3/1
f 16/3/1 8/3/1 15/3/1
f 17/9/1 9/9/1 8/9/1
f 17/3/1 8/3/1 16/3/1
f 18/7/1 10/7/1 9/7/1
f 18/9/1 9/9/1 17/9/1
f 19/7/1 10/7/1 18/7/1
f 20/7/1 10/7/1 19/7/1
f 21/2/1 12/2/1 11/2/1
f 22/3/1 13/3/1 12/3/1
f 22/2/1 12/2/1 21/2/1
f 22/3/1 14/3/1 13/3/1
f 22/3/1 15/3/1 14/3/1
f 23/3/1 17/3/1 16/3/1
f 23/4/1 20/4/1 19/4/1
f 23/3/1 19/3/1 18/3/1
f 23/3/1 18/3/1 17/3/1
f 24/4/1 20/4/1 23/4/1
f 25/3/1 22/3/1 21/3/1
f 26/3/1 15/3/1 22/3/1
f 26/3/1 22/3/1 25/3/1
f 27/3/1 15/3/1 26/3/1
f 28/3/1 15/3/1 27/3/1
f 29/1/1 16/1/1 15/1/1
f 29/3/1 15/3/1 28/3/1
f 30/3/1 23/3/1 16/3/1
f 30/1/1 16/1/1 29/1/1
f 30/3/1 24/3/1 23/3/1
f 31/3/1 24/3/1 30/3/1
f 32/3/1 24/3/1 31/3/1
f 33/3/1 24/3/1 32/3/1
f 34/10/1 28/10/1 27/10/1
f 34/6/1 27/6/1 26/6/1
f 35/6/1 29/6/1 28/6/1
f 35/10/1 28/10/1 34/10/1
f 36/10/1 31/10/1 30/10/1
f 36/6/1 29/6/1 35/6/1
f 36/10/1 30/10/1 29/10/1
f 37/6/1 32/6/1 31/6/1
f 37/10/1 31/10/1 36/10/1
f 38/6/1 34/6/1 26/6/1
f 38/6/1 36/6/1 35/6/1
f 38/6/1 37/6/1 36/6/1
f 38/6/1 35/6/1 34/6/1
f 39/6/1 37/6/1 38/6/1
f 40/6/1 37/6/1 39/6/1
f 41/6/1 32/6/1 37/6/1
f 41/6/1 37/6/1 40/6/1
f 42/2/1 40/2/1 39/2/1
f 43/2/1 40/2/1 42/2/1
f 48/9/1 45/9/1 44/9/1
f 49/9/1 45/9/1 48/9/1
f 50/9/1 47/9/1 46/9/1
f 51/9/1 47/9/1 50/9/1
f 55/3/1 53/3/1 52/3/1
f 56/1/1 54/1/1 53/1/1
f 56/3/1 53/3/1 55/3/1
f 57/1/1 54/1/1 56/1/1
f 58/9/2 59/9/2 62/9/2
f 62/9/2 59/9/2 63/9/2
f 60/9/2 61/9/2 64/9/2
f 64/9/2 61/9/2 65/9/2
f 66/3/2 67/3/2 68/3/2
f 68/3/2 67/3/2 69/3/2
f 70/9/2 71/9/2 76/9/2
f 76/9/2 71/9/2 77/9/2
f 72/9/2 73/9/2 78/9/2
f 78/9/2 73/9/2 79/9/2
f 74/5/2 75/5/2 81/5/2
f 75/7/2 76/7/2 82/7/2
f 81/5/2 75/5/2 82/5/2
f 76/8/2 77/8/2 83/8/2
f 82/7/2 76/7/2 83/7/2
f 77/3/2 78/3/2 84/3/2
f 83/8/2 77/8/2 84/8/2
f 84/3/2 78/3/2 85/3/2
f 85/3/2 78/3/2 86/3/2
f 78/8/2 79/8/2 87/8/2
f 86/3/2 78/3/2 87/3/2
f 79/7/2 80/7/2 88/7/2
f 87/8/2 79/8/2 88/8/2
f 88/7/2 80/7/2 89/7/2
f 89/7/2 80/7/2 90/7/2
f 81/2/2 82/2/2 91/2/2
f 82/3/2 83/3/2 92/3/2
f 91/2/2 82/2/2 92/2/2
f 83/3/2 84/3/2 92/3/2
f 84/3/2 85/3/2 92/3/2
f 86/3/2 87/3/2 93/3/2
f 89/4/2 90/4/2 93/4/2
f 88/3/2 89/3/2 93/3/2
f 87/3/2 88/3/2 93/3/2
f 93/4/2 90/4/2 94/4/2
f 91/3/2 92/3/2 95/3/2
f 92/3/2 85/3/2 96/3/2
f 95/3/2 92/3/2 96/3/2
f 96/3/2 85/3/2 97/3/2
f 97/3/2 85/3/2 98/3/2
f 98/3/2 85/3/2 99/3/2
f 85/1/2 86/1/2 100/1/2
f 99/3/2 85/3/2 100/3/2
f 86/3/2 93/3/2 101/3/2
f 100/1/2 86/1/2 101/1/2
f 93/3/2 94/3/2 101/3/2
f 101/3/2 94/3/2 102/3/2
f 102/3/2 94/3/2 103/3/2
f 103/3/2 94/3/2 104/3/2
f 97/10/2 98/10/2 105/10/2
f 96/6/2 97/6/2 105/6/2
f 98/8/2 99/8/2 106/8/2
f 105/10/2 98/10/2 106/10/2
f 99/6/2 100/6/2 107/6/2
f 106/8/2 99/8/2 107/8/2
f 101/8/2 102/8/2 108/8/2
f 107/6/2 100/6/2 108/6/2
f 100/8/2 101/8/2 108/8/2
f 102/6/2 103/6/2 109/6/2
f 108/8/2 102/8/2 109/8/2
f 96/6/2 105/6/2 110/6/2
f 105/6/2 106/6/2 110/6/2
f 108/6/2 109/6/2 110/6/2
f 106/6/2 107/6/2 110/6/2
f 107/6/2 108/6/2 110/6/2
f 110/6/2 109/6/2 111/6/2
f 111/6/2 109/6/2 112/6/2
f 109/6/2 103/6/2 113/6/2
f 112/6/2 109/6/2 113/6/2
f 111/3/2 112/3/2 114/3/2
f 114/3/2 112/3/2 115/3/2
f 120/5/3 117/5/3 116/5/3
f 120/2/3 118/2/3 117/2/3
f 121/3/3 119/3/3 118/3/3
f 121/2/3 118/2/3 120/2/3
f 122/5/3 120/5/3 116/5/3
f 122/3/3 121/3/3 120/3/3
f 123/3/3 119/3/3 121/3/3
f 123/3/3 121/3/3 122/3/3
f 124/5/3 122/5/3 116/5/3
f 125/2/3 123/2/3 122/2/3
f 125/5/3 122/5/3 124/5/3
f 126/3/3 119/3/3 123/3/3
f 126/2/3 123/2/3 125/2/3
f 127/3/3 119/3/3 126/3/3
f 130/9/3 129/9/3 128/9/3
f 131/9/3 129/9/3 130/9/3
f 134/9/3 133/9/3 132/9/3
f 135/9/3 133/9/3 134/9/3
f 138/6/3 137/6/3 136/6/3
f 139/6/3 137/6/3 138/6/3
f 140/10/3 139/10/3 138/10/3
f 141/6/3 137/6/3 139/6/3
f 141/10/3 139/10/3 140/10/3
f 142/6/3 141/6/3 140/6/3
f 143/6/3 137/6/3 141/6/3
f 143/6/3 141/6/3 142/6/3
f 146/2/3 145/2/3 144/2/3
f 147/2/3 145/2/3 146/2/3
f 148/6/3 147/6/3 146/6/3
f 149/6/3 147/6/3 148/6/3
f 150/3/3 149/3/3 148/3/3
f 151/3/3 149/3/3 150/3/3
f 154/3/3 153/3/3 152/3/3
f 155/3/3 153/3/3 154/3/3
f 158/9/3 157/9/3 156/9/3
f 159/9/3 157/9/3 158/9/3
f 162/9/3 161/9/3 160/9/3
f 163/9/3 161/9/3 162/9/3
f 164/9/4 165/9/4 166/9/4
f 166/9/4 165/9/4 167/9/4
f 168/9/4 169/9/4 170/9/4
f 170/9/4 169/9/4 171/9/4
f 172/6/4 173/6/4 174/6/4
f 174/6/4 173/6/4 175/6/4
f 174/3/4 175/3/4 176/3/4
f 176/3/4 175/3/4 177/3/4
f 176/6/4 177/6/4 178/6/4
f 178/6/4 177/6/4 179/6/4
f 180/2/4 181/2/4 182/2/4
f 182/2/4 181/2/4 183/2/4
f 182/6/4 183/6/4 184/6/4
f 184/6/4 183/6/4 185/6/4
f 184/3/4 185/3/4 186/3/4
f 186/3/4 185/3/4 187/3/4
f 188/6/4 189/6/4 190/6/4
f 190/6/4 189/6/4 191/6/4
f 190/10/4 191/10/4 192/10/4
f 191/6/4 189/6/4 193/6/4
f 192/10/4 191/10/4 193/10/4
f 192/6/4 193/6/4 194/6/4
f 193/6/4 189/6/4 195/6/4
f 194/6/4 193/6/4 195/6/4
f 196/9/4 197/9/4 198/9/4
f 198/9/4 197/9/4 199/9/4
f 200/9/4 201/9/4 202/9/4
f 202/9/4 201/9/4 203/9/4
f 204/7/4 205/7/4 208/7/4
f 205/4/4 206/4/4 209/4/4
f 208/7/4 205/7/4 209/7/4
f 208/5/4 209/5/4 210/5/4
f 209/4/4 206/4/4 210/4/4
f 206/3/4 207/3/4 211/3/4
f 210/4/4 206/4/4 211/4/4
f 208/5/4 210/5/4 212/5/4
f 210/3/4 211/3/4 212/3/4
f 211/3/4 207/3/4 213/3/4
f 212/3/4 211/3/4 213/3/4
f 208/5/4 212/5/4 214/5/4
f 212/4/4 213/4/4 215/4/4
f 214/5/4 212/5/4 215/5/4
f 214/7/4 215/7/4 216/7/4
f 215/4/4 213/4/4 217/4/4
f 216/7/4 215/7/4 217/7/4
f 213/3/4 207/3/4 218/3/4
f 217/4/4 213/4/4 218/4/4
f 218/3/4 207/3/4 219/3/4
f 224/9/5 221/9/5 220/9/5
f 225/9/5 221/9/5 224/9/5
f 226/9/5 223/9/5 222/9/5
f 227/9/5 223/9/5 226/9/5
f 232/9/5 229/9/5 228/9/5
f 233/9/5 229/9/5 232/9/5
f 234/9/5 231/9/5 230/9/5
f 235/9/5 231/9/5 234/9/5
f 238/5/5 237/5/5 236/5/5
f 239/5/5 237/5/5 238/5/5
f 240/5/5 237/5/5 239/5/5
f 241/5/5 238/5/5 236/5/5
f 242/3/5 239/3/5 238/3/5
f 242/5/5 238/5/5 241/5/5
f 243/7/5 240/7/5 239/7/5
f 243/3/5 239/3/5 242/3/5
f 244/7/5 240/7/5 243/7/5
f 246/3/5 243/3/5 242/3/5
f 247/3/5 243/3/5 246/3/5
f 249/3/5 246/3/5 245/3/5
f 249/3/5 248/3/5 247/3/5
f 249/3/5 247/3/5 246/3/5
f 250/3/5 248/3/5 249/3/5
f 251/3/5 248/3/5 250/3/5
f 252/3/5 248/3/5 251/3/5
f 254/3/5 251/3/5 250/3/5
f 255/3/5 251/3/5 254/3/5
f 257/7/5 254/7/5 253/7/5
f 257/3/5 255/3/5 254/3/5
f 258/7/5 256/7/5 255/7/5
f 258/3/5 255/3/5 257/3/5
f 259/7/5 257/7/5 253/7/5
f 260/5/5 258/5/5 257/5/5
f 260/7/5 257/7/5 259/7/5
f 261/7/5 256/7/5 258/7/5
f 261/5/5 258/5/5 260/5/5
f 262/7/5 256/7/5 261/7/5
f 267/3/5 264/3/5 263/3/5
f 267/3/5 266/3/5 265/3/5
f 267/3/5 265/3/5 264/3/5
f 268/3/5 267/3/5 263/3/5
f 269/3/5 267/3/5 268/3/5
f 270/3/6 271/3/6 274/3/6
f 272/3/6 273/3/6 274/3/6
f 271/3/6 272/3/6 274/3/6
f 270/3/6 274/3/6 275/3/6
f 275/3/6 274/3/6 276/3/6
f 277/3/6 278/3/6 279/3/6
f 279/3/6 278/3/6 280/3/6
f 280/3/6 278/3/6 281/3/6
f 281/3/6 278/3/6 282/3/6
f 283/3/6 284/3/6 287/3/6
f 285/3/6 286/3/6 287/3/6
f 284/3/6 285/3/6 287/3/6
f 287/3/6 286/3/6 288/3/6
f 289/6/6 290/6/6 291/6/6
f 291/6/6 290/6/6 292/6/6
f 292/6/6 290/6/6 293/6/6
f 293/6/6 290/6/6 294/6/6
f 295/6/6 296/6/6 299/6/6
f 297/6/6 298/6/6 299/6/6
f 296/6/6 297/6/6 299/6/6
f 299/6/6 298/6/6 300/6/6
f 301/2/6 302/2/6 305/2/6
f 302/6/6 303/6/6 306/6/6
f 305/2/6 302/2/6 306/2/6
f 303/3/6 304/3/6 307/3/6
f 306/6/6 303/6/6 307/6/6
f 307/3/6 304/3/6 308/3/6
