# MagicaVoxel @ Ephtracy

# group
o 

# material
mtllib cars-3.mtl
usemtl palette

# normals
vn 0 0 1
vn 0 0 -1
vn 1 0 0
vn -1 0 0
vn 0 -1 0
vn 0 1 0

# texcoords
vt 0.0175781 0.5
vt 0.0214844 0.5
vt 0.0332031 0.5
vt 0.0683594 0.5
vt 0.0722656 0.5
vt 0.986328 0.5
vt 0.990234 0.5

# verts
v -2.3 0.3 4.6
v -2.6 0.3 4.6
v -3.2 0.3 4.6
v -3.5 0.3 4.6
v -2.1 0.4 4.6
v -2.3 0.4 4.6
v -2.6 0.4 4.6
v -3.2 0.4 4.6
v -3.5 0.4 4.6
v -3.7 0.4 4.6
v -2.1 0.5 4.6
v -2.2 0.5 4.6
v -2.3 0.5 4.6
v -2.6 0.5 4.6
v -3.2 0.5 4.6
v -3.5 0.5 4.6
v -3.6 0.5 4.6
v -3.7 0.5 4.6
v -2.1 0.6 4.6
v -2.2 0.6 4.6
v -3.6 0.6 4.6
v -3.7 0.6 4.6
v -2.1 0.7 4.6
v -2.2 0.7 4.6
v -2.3 0.7 4.6
v -2.6 0.7 4.6
v -2.7 0.7 4.6
v -3.1 0.7 4.6
v -3.2 0.7 4.6
v -3.7 0.7 4.6
v -2.3 0.8 4.6
v -2.6 0.8 4.6
v -2.7 0.8 4.6
v -3.1 0.8 4.6
v -2.2 0.9 4.6
v -3.2 0.9 4.6
v -2.3 0.3 4
v -2.6 0.3 4
v -3.2 0.3 4
v -3.5 0.3 4
v -2.3 0.4 4
v -2.6 0.4 4
v -3.2 0.4 4
v -3.5 0.4 4
v -2.6 0.6 4
v -3 0.6 4
v -2.6 0.7 4
v -3 0.7 4
v -2.3 0.3 4.5
v -2.6 0.3 4.5
v -3.2 0.3 4.5
v -3.5 0.3 4.5
v -2.3 0.4 4.5
v -2.6 0.4 4.5
v -3.2 0.4 4.5
v -3.5 0.4 4.5
v -2.6 0.6 4.4
v -3 0.6 4.4
v -2.6 0.7 4.4
v -3 0.7 4.4
v -2.3 0.3 3.9
v -2.6 0.3 3.9
v -3.2 0.3 3.9
v -3.5 0.3 3.9
v -2.1 0.4 3.9
v -2.3 0.4 3.9
v -2.6 0.4 3.9
v -3.2 0.4 3.9
v -3.5 0.4 3.9
v -3.7 0.4 3.9
v -2.1 0.5 3.9
v -2.2 0.5 3.9
v -2.3 0.5 3.9
v -2.6 0.5 3.9
v -3.2 0.5 3.9
v -3.5 0.5 3.9
v -3.6 0.5 3.9
v -3.7 0.5 3.9
v -2.1 0.6 3.9
v -2.2 0.6 3.9
v -3.6 0.6 3.9
v -3.7 0.6 3.9
v -2.1 0.7 3.9
v -2.2 0.7 3.9
v -2.3 0.7 3.9
v -2.6 0.7 3.9
v -2.7 0.7 3.9
v -3.1 0.7 3.9
v -3.2 0.7 3.9
v -3.7 0.7 3.9
v -2.3 0.8 3.9
v -2.6 0.8 3.9
v -2.7 0.8 3.9
v -3.1 0.8 3.9
v -2.2 0.9 3.9
v -3.2 0.9 3.9
v -2.1 0.4 4.6
v -2.1 0.5 4.6
v -2.1 0.6 4.6
v -2.1 0.7 4.6
v -2.1 0.5 4.4
v -2.1 0.6 4.4
v -2.1 0.5 4.1
v -2.1 0.6 4.1
v -2.1 0.4 3.9
v -2.1 0.5 3.9
v -2.1 0.6 3.9
v -2.1 0.7 3.9
v -2.2 0.7 4.6
v -2.2 0.9 4.6
v -2.2 0.7 4.5
v -2.2 0.8 4.5
v -2.2 0.7 4
v -2.2 0.8 4
v -2.2 0.7 3.9
v -2.2 0.9 3.9
v -2.3 0.3 4.6
v -2.3 0.4 4.6
v -2.3 0.3 4.5
v -2.3 0.4 4.5
v -2.3 0.3 4
v -2.3 0.4 4
v -2.3 0.3 3.9
v -2.3 0.4 3.9
v -3 0.6 4.4
v -3 0.7 4.4
v -3 0.6 4
v -3 0.7 4
v -3.2 0.3 4.6
v -3.2 0.4 4.6
v -3.2 0.3 4.5
v -3.2 0.4 4.5
v -3.2 0.3 4
v -3.2 0.4 4
v -3.2 0.3 3.9
v -3.2 0.4 3.9
v -2.6 0.3 4.6
v -2.6 0.4 4.6
v -2.6 0.3 4.5
v -2.6 0.4 4.5
v -2.6 0.6 4.4
v -2.6 0.7 4.4
v -2.6 0.6 4.3
v -2.6 0.7 4.3
v -2.6 0.6 4.1
v -2.6 0.7 4.1
v -2.6 0.3 4
v -2.6 0.4 4
v -2.6 0.6 4
v -2.6 0.7 4
v -2.6 0.3 3.9
v -2.6 0.4 3.9
v -3.2 0.7 4.6
v -3.2 0.9 4.6
v -3.2 0.7 4.5
v -3.2 0.8 4.5
v -3.2 0.7 4
v -3.2 0.8 4
v -3.2 0.7 3.9
v -3.2 0.9 3.9
v -3.5 0.3 4.6
v -3.5 0.4 4.6
v -3.5 0.3 4.5
v -3.5 0.4 4.5
v -3.5 0.3 4
v -3.5 0.4 4
v -3.5 0.3 3.9
v -3.5 0.4 3.9
v -3.7 0.4 4.6
v -3.7 0.5 4.6
v -3.7 0.6 4.6
v -3.7 0.7 4.6
v -3.7 0.5 4.4
v -3.7 0.6 4.4
v -3.7 0.5 4.1
v -3.7 0.6 4.1
v -3.7 0.4 3.9
v -3.7 0.5 3.9
v -3.7 0.6 3.9
v -3.7 0.7 3.9
v -2.3 0.3 4.6
v -2.3 0.3 4.5
v -2.3 0.3 4
v -2.3 0.3 3.9
v -2.6 0.3 4.6
v -2.6 0.3 4.5
v -2.6 0.3 4
v -2.6 0.3 3.9
v -3.2 0.3 4.6
v -3.2 0.3 4.5
v -3.2 0.3 4
v -3.2 0.3 3.9
v -3.5 0.3 4.6
v -3.5 0.3 4.5
v -3.5 0.3 4
v -3.5 0.3 3.9
v -2.1 0.4 4.6
v -2.1 0.4 3.9
v -2.2 0.4 4.5
v -2.2 0.4 4
v -2.3 0.4 4.6
v -2.3 0.4 4.5
v -2.3 0.4 4
v -2.3 0.4 3.9
v -2.6 0.4 4.6
v -2.6 0.4 4.5
v -2.6 0.4 4
v -2.6 0.4 3.9
v -3.2 0.4 4.6
v -3.2 0.4 4.5
v -3.2 0.4 4
v -3.2 0.4 3.9
v -3.5 0.4 4.6
v -3.5 0.4 4.5
v -3.5 0.4 4
v -3.5 0.4 3.9
v -3.6 0.4 4.5
v -3.6 0.4 4
v -3.7 0.4 4.6
v -3.7 0.4 3.9
v -2.6 0.7 4.4
v -2.6 0.7 4.3
v -2.6 0.7 4.1
v -2.6 0.7 4
v -3 0.7 4.4
v -3 0.7 4
v -2.6 0.6 4.4
v -2.6 0.6 4.3
v -2.6 0.6 4.1
v -2.6 0.6 4
v -3 0.6 4.4
v -3 0.6 4
v -2.1 0.7 4.6
v -2.1 0.7 3.9
v -2.2 0.7 4.6
v -2.2 0.7 4.5
v -2.2 0.7 4
v -2.2 0.7 3.9
v -3.2 0.7 4.6
v -3.2 0.7 4.5
v -3.2 0.7 4
v -3.2 0.7 3.9
v -3.7 0.7 4.6
v -3.7 0.7 3.9
v -2.2 0.9 4.6
v -2.2 0.9 3.9
v -3.2 0.9 4.6
v -3.2 0.9 3.9

# faces
f 6/6/1 2/6/1 1/6/1
f 7/6/1 2/6/1 6/6/1
f 8/6/1 4/6/1 3/6/1
f 9/6/1 4/6/1 8/6/1
f 11/4/1 6/4/1 5/4/1
f 12/4/1 6/4/1 11/4/1
f 13/5/1 7/5/1 6/5/1
f 13/4/1 6/4/1 12/4/1
f 14/1/1 8/1/1 7/1/1
f 14/5/1 7/5/1 13/5/1
f 15/5/1 9/5/1 8/5/1
f 15/1/1 8/1/1 14/1/1
f 16/4/1 10/4/1 9/4/1
f 16/5/1 9/5/1 15/5/1
f 17/4/1 10/4/1 16/4/1
f 18/4/1 10/4/1 17/4/1
f 19/2/1 12/2/1 11/2/1
f 20/1/1 15/1/1 14/1/1
f 20/2/1 12/2/1 19/2/1
f 20/1/1 13/1/1 12/1/1
f 20/1/1 14/1/1 13/1/1
f 20/1/1 17/1/1 16/1/1
f 20/1/1 16/1/1 15/1/1
f 21/3/1 18/3/1 17/3/1
f 21/1/1 17/1/1 20/1/1
f 22/3/1 18/3/1 21/3/1
f 23/1/1 20/1/1 19/1/1
f 23/1/1 21/1/1 20/1/1
f 23/1/1 22/1/1 21/1/1
f 24/1/1 22/1/1 23/1/1
f 25/1/1 22/1/1 24/1/1
f 26/1/1 22/1/1 25/1/1
f 27/1/1 22/1/1 26/1/1
f 28/1/1 22/1/1 27/1/1
f 29/1/1 22/1/1 28/1/1
f 30/1/1 22/1/1 29/1/1
f 31/1/1 25/1/1 24/1/1
f 31/5/1 26/5/1 25/5/1
f 32/1/1 27/1/1 26/1/1
f 32/5/1 26/5/1 31/5/1
f 33/5/1 28/5/1 27/5/1
f 33/1/1 27/1/1 32/1/1
f 34/1/1 29/1/1 28/1/1
f 34/5/1 28/5/1 33/5/1
f 35/1/1 33/1/1 32/1/1
f 35/1/1 32/1/1 31/1/1
f 35/1/1 34/1/1 33/1/1
f 35/1/1 31/1/1 24/1/1
f 36/1/1 29/1/1 34/1/1
f 36/1/1 34/1/1 35/1/1
f 41/6/1 38/6/1 37/6/1
f 42/6/1 38/6/1 41/6/1
f 43/6/1 40/6/1 39/6/1
f 44/6/1 40/6/1 43/6/1
f 47/1/1 46/1/1 45/1/1
f 48/1/1 46/1/1 47/1/1
f 49/6/2 50/6/2 53/6/2
f 53/6/2 50/6/2 54/6/2
f 51/6/2 52/6/2 55/6/2
f 55/6/2 52/6/2 56/6/2
f 57/6/2 58/6/2 59/6/2
f 59/6/2 58/6/2 60/6/2
f 61/6/2 62/6/2 66/6/2
f 66/6/2 62/6/2 67/6/2
f 63/6/2 64/6/2 68/6/2
f 68/6/2 64/6/2 69/6/2
f 65/4/2 66/4/2 71/4/2
f 71/4/2 66/4/2 72/4/2
f 66/5/2 67/5/2 73/5/2
f 72/4/2 66/4/2 73/4/2
f 67/1/2 68/1/2 74/1/2
f 73/5/2 67/5/2 74/5/2
f 68/5/2 69/5/2 75/5/2
f 74/1/2 68/1/2 75/1/2
f 69/4/2 70/4/2 76/4/2
f 75/5/2 69/5/2 76/5/2
f 76/4/2 70/4/2 77/4/2
f 77/4/2 70/4/2 78/4/2
f 71/2/2 72/2/2 79/2/2
f 74/1/2 75/1/2 80/1/2
f 79/2/2 72/2/2 80/2/2
f 72/1/2 73/1/2 80/1/2
f 73/1/2 74/1/2 80/1/2
f 76/1/2 77/1/2 80/1/2
f 75/1/2 76/1/2 80/1/2
f 77/3/2 78/3/2 81/3/2
f 80/1/2 77/1/2 81/1/2
f 81/3/2 78/3/2 82/3/2
f 79/1/2 80/1/2 83/1/2
f 80/1/2 81/1/2 83/1/2
f 81/1/2 82/1/2 83/1/2
f 83/1/2 82/1/2 84/1/2
f 84/1/2 82/1/2 85/1/2
f 85/1/2 82/1/2 86/1/2
f 86/1/2 82/1/2 87/1/2
f 87/1/2 82/1/2 88/1/2
f 88/1/2 82/1/2 89/1/2
f 89/1/2 82/1/2 90/1/2
f 84/1/2 85/1/2 91/1/2
f 85/5/2 86/5/2 91/5/2
f 86/1/2 87/1/2 92/1/2
f 91/5/2 86/5/2 92/5/2
f 87/5/2 88/5/2 93/5/2
f 92/1/2 87/1/2 93/1/2
f 88/1/2 89/1/2 94/1/2
f 93/5/2 88/5/2 94/5/2
f 92/1/2 93/1/2 95/1/2
f 91/1/2 92/1/2 95/1/2
f 93/1/2 94/1/2 95/1/2
f 84/1/2 91/1/2 95/1/2
f 94/1/2 89/1/2 96/1/2
f 95/1/2 94/1/2 96/1/2
f 101/4/3 98/4/3 97/4/3
f 101/2/3 99/2/3 98/2/3
f 102/1/3 100/1/3 99/1/3
f 102/2/3 99/2/3 101/2/3
f 103/4/3 101/4/3 97/4/3
f 103/1/3 102/1/3 101/1/3
f 104/1/3 100/1/3 102/1/3
f 104/1/3 102/1/3 103/1/3
f 105/4/3 103/4/3 97/4/3
f 106/2/3 104/2/3 103/2/3
f 106/4/3 103/4/3 105/4/3
f 107/1/3 100/1/3 104/1/3
f 107/2/3 104/2/3 106/2/3
f 108/1/3 100/1/3 107/1/3
f 111/1/3 110/1/3 109/1/3
f 112/1/3 110/1/3 111/1/3
f 113/5/3 112/5/3 111/5/3
f 114/1/3 110/1/3 112/1/3
f 114/5/3 112/5/3 113/5/3
f 115/1/3 114/1/3 113/1/3
f 116/1/3 110/1/3 114/1/3
f 116/1/3 114/1/3 115/1/3
f 119/6/3 118/6/3 117/6/3
f 120/6/3 118/6/3 119/6/3
f 123/6/3 122/6/3 121/6/3
f 124/6/3 122/6/3 123/6/3
f 127/6/3 126/6/3 125/6/3
f 128/6/3 126/6/3 127/6/3
f 131/6/3 130/6/3 129/6/3
f 132/6/3 130/6/3 131/6/3
f 135/6/3 134/6/3 133/6/3
f 136/6/3 134/6/3 135/6/3
f 137/6/4 138/6/4 139/6/4
f 139/6/4 138/6/4 140/6/4
f 141/1/4 142/1/4 143/1/4
f 143/1/4 142/1/4 144/1/4
f 143/6/4 144/6/4 145/6/4
f 145/6/4 144/6/4 146/6/4
f 145/1/4 146/1/4 149/1/4
f 149/1/4 146/1/4 150/1/4
f 147/6/4 148/6/4 151/6/4
f 151/6/4 148/6/4 152/6/4
f 153/1/4 154/1/4 155/1/4
f 155/1/4 154/1/4 156/1/4
f 155/5/4 156/5/4 157/5/4
f 156/1/4 154/1/4 158/1/4
f 157/5/4 156/5/4 158/5/4
f 157/1/4 158/1/4 159/1/4
f 158/1/4 154/1/4 160/1/4
f 159/1/4 158/1/4 160/1/4
f 161/6/4 162/6/4 163/6/4
f 163/6/4 162/6/4 164/6/4
f 165/6/4 166/6/4 167/6/4
f 167/6/4 166/6/4 168/6/4
f 169/4/4 170/4/4 173/4/4
f 170/3/4 171/3/4 173/3/4
f 171/1/4 172/1/4 174/1/4
f 173/3/4 171/3/4 174/3/4
f 169/4/4 173/4/4 175/4/4
f 173/1/4 174/1/4 175/1/4
f 174/1/4 172/1/4 176/1/4
f 175/1/4 174/1/4 176/1/4
f 169/4/4 175/4/4 177/4/4
f 175/3/4 176/3/4 178/3/4
f 177/4/4 175/4/4 178/4/4
f 176/1/4 172/1/4 179/1/4
f 178/3/4 176/3/4 179/3/4
f 179/1/4 172/1/4 180/1/4
f 185/6/5 182/6/5 181/6/5
f 186/6/5 182/6/5 185/6/5
f 187/6/5 184/6/5 183/6/5
f 188/6/5 184/6/5 187/6/5
f 193/6/5 190/6/5 189/6/5
f 194/6/5 190/6/5 193/6/5
f 195/6/5 192/6/5 191/6/5
f 196/6/5 192/6/5 195/6/5
f 199/4/5 198/4/5 197/4/5
f 200/4/5 198/4/5 199/4/5
f 201/4/5 199/4/5 197/4/5
f 202/1/5 200/1/5 199/1/5
f 202/4/5 199/4/5 201/4/5
f 203/4/5 198/4/5 200/4/5
f 203/1/5 200/1/5 202/1/5
f 204/4/5 198/4/5 203/4/5
f 206/1/5 203/1/5 202/1/5
f 207/1/5 203/1/5 206/1/5
f 209/1/5 206/1/5 205/1/5
f 209/1/5 208/1/5 207/1/5
f 209/1/5 207/1/5 206/1/5
f 210/1/5 208/1/5 209/1/5
f 211/1/5 208/1/5 210/1/5
f 212/1/5 208/1/5 211/1/5
f 214/1/5 211/1/5 210/1/5
f 215/1/5 211/1/5 214/1/5
f 217/4/5 214/4/5 213/4/5
f 217/1/5 215/1/5 214/1/5
f 218/4/5 216/4/5 215/4/5
f 218/1/5 215/1/5 217/1/5
f 219/4/5 217/4/5 213/4/5
f 219/4/5 218/4/5 217/4/5
f 220/4/5 216/4/5 218/4/5
f 220/4/5 218/4/5 219/4/5
f 225/7/5 222/7/5 221/7/5
f 225/7/5 224/7/5 223/7/5
f 225/7/5 223/7/5 222/7/5
f 226/7/5 224/7/5 225/7/5
f 227/1/6 228/1/6 231/1/6
f 229/1/6 230/1/6 231/1/6
f 228/1/6 229/1/6 231/1/6
f 231/1/6 230/1/6 232/1/6
f 233/1/6 234/1/6 235/1/6
f 235/1/6 234/1/6 236/1/6
f 236/1/6 234/1/6 237/1/6
f 237/1/6 234/1/6 238/1/6
f 239/1/6 240/1/6 243/1/6
f 241/1/6 242/1/6 243/1/6
f 240/1/6 241/1/6 243/1/6
f 243/1/6 242/1/6 244/1/6
f 245/1/6 246/1/6 247/1/6
f 247/1/6 246/1/6 248/1/6
